<svg  version="1.1"  xmlns="http://www.w3.org/2000/svg" xmlns:xlink="http://www.w3.org/1999/xlink">
    <defs>
		<!-- icon-ux svg  -->
		<svg id="icon-ux" x="0px" y="0px"
		viewBox="0 0 80 80" enable-background="new 0 0 80 80" xml:space="preserve">
			<path fill="#DCE1E5" d="M35.6,58.7c3.2,3.2,6.2,6.3,10.4,8.2c3.4,1.6,7.1,2.4,10.9,2.2c7.7-0.3,14.6-5,17.4-12.3
				c3.4-8.8,0.2-18.4-6.3-24.8c-3.3-3.2-6.4-6.8-9.8-9.8c-1.2-1.1-2.7-1.8-4.3-1.3c-1.8,0.5-3.1,2.3-3.1,4.2c0,0.2-0.2,0.3-0.4,0.2
				c-1.5-1.1-3.3-1.6-5-0.6c-1.3,0.8-2.1,2.3-2,3.8c0,0.2-0.2,0.3-0.4,0.2c-1.3-0.9-3-1.7-4.6-1c-1.6,0.7-2.5,2.3-2.4,4
				c0,0.2-0.2,0.3-0.4,0.2c-1.7-1.7-3.4-3.5-5.1-5.2c-1.4-1.4-3.3-3.3-5.5-2.8c-1.9,0.4-3.5,2.4-3.3,4.4c0.2,1.7,1.5,3.1,2.6,4.3
				c3.5,3.7,7.3,7.2,10.9,10.8c1.5,1.5,2.9,2.9,4.4,4.4c1.2,1.2,2.3,2.1,3.5,3.4l0,0c0.4,0.4,0.4,1.1,0,1.5l-0.1,0.1
				c-0.4,0.4-1.1,0.4-1.5,0l0,0l-3-3c-1.6-1.6-4.3-1.6-5.9,0l0,0c-1.6,1.6-1.6,4.3,0,5.9l2.2,2.2L35.6,58.7z"/>

			<path fill="#68717D" d="M50,67.9c-3.4,0-6.9-0.8-10.1-2.3c-0.6-0.3-1.2-0.6-1.8-1C38,64.6,38,64.4,38,64.3
				c0.1-0.1,0.2-0.1,0.3-0.1c0.6,0.3,1.2,0.7,1.8,0.9c3.4,1.6,7.2,2.4,10.8,2.2c7.8-0.3,14.5-5.1,17.2-12.1
				c3.1-8.2,0.6-17.8-6.3-24.6c-1.2-1.2-2.4-2.4-3.5-3.6c-2-2.1-4.1-4.3-6.3-6.2c-1.5-1.3-2.8-1.7-4.1-1.3c-1.7,0.5-3,2.2-2.9,4
				c0,0.2-0.1,0.3-0.2,0.4c-0.1,0.1-0.3,0.1-0.5,0c-1-0.7-2.9-1.8-4.8-0.6c-1.2,0.8-2,2.2-1.9,3.6c0,0.2-0.1,0.3-0.2,0.4
				c-0.1,0.1-0.3,0.1-0.5,0c-1.7-1.2-3.2-1.5-4.4-0.9c-1.5,0.7-2.4,2.2-2.2,3.8c0,0.2-0.1,0.4-0.2,0.4c-0.2,0.1-0.4,0-0.5-0.1
				c-1.5-1.6-3.3-3.4-5.1-5.1c-1.4-1.3-3.2-3.2-5.3-2.7c-1.7,0.4-3.4,2.2-3.1,4.1c0.2,1.6,1.4,3,2.6,4.2c2.2,2.3,4.5,4.5,6.7,6.7
				c1.4,1.3,2.8,2.7,4.2,4.1l4.4,4.4c0.5,0.5,1,1,1.5,1.4c0.7,0.6,1.3,1.2,2,2c0.2,0.2,0.4,0.6,0.4,0.9c0,0.3-0.1,0.7-0.4,0.9
				l-0.1,0.1c-0.5,0.5-1.3,0.5-1.8,0l-3-3c-0.8-0.8-1.7-1.2-2.8-1.2c-1.1,0-2.1,0.4-2.8,1.2c-1.5,1.5-1.5,4.1,0,5.6l3.2,3.2
				c1.2,1.2,2.3,2.3,3.5,3.4c0.1,0.1,0.1,0.2,0,0.3c-0.1,0.1-0.2,0.1-0.3,0c-1.2-1.1-2.3-2.2-3.5-3.4l-3.2-3.2
				c-1.7-1.7-1.7-4.5,0-6.2c0.8-0.8,1.9-1.3,3.1-1.3c1.2,0,2.3,0.5,3.1,1.3l3,3c0.3,0.3,0.9,0.3,1.2,0l0.1-0.1
				c0.2-0.2,0.3-0.4,0.3-0.6c0-0.2-0.1-0.4-0.3-0.6c-0.7-0.7-1.3-1.3-2-2c-0.5-0.4-1-0.9-1.5-1.4l-4.4-4.4c-1.4-1.4-2.8-2.8-4.2-4.1
				c-2.2-2.2-4.6-4.4-6.7-6.7c-1.2-1.2-2.4-2.7-2.7-4.4c-0.3-2.1,1.6-4.2,3.4-4.6c2.3-0.5,4.3,1.5,5.7,2.8c1.8,1.7,3.5,3.6,5.1,5.2
				c-0.1-1.8,0.8-3.4,2.5-4.2c1.4-0.6,3-0.3,4.8,1c-0.1-1.6,0.8-3.2,2.1-4c1.6-1,3.5-0.7,5.3,0.6c0-2,1.4-3.9,3.3-4.4
				c1.5-0.4,2.9,0,4.5,1.4c2.2,1.9,4.3,4.1,6.3,6.2c1.1,1.2,2.3,2.4,3.5,3.6c7,6.9,9.5,16.7,6.4,25c-2.7,7.2-9.6,12.1-17.6,12.4
				C50.6,67.9,50.3,67.9,50,67.9z"/>
		
			<path fill="#68717D" d="M35.8,63.1c0,0-0.1,0-0.1,0c-0.3-0.2-0.5-0.4-0.8-0.6c-0.1-0.1-0.1-0.2,0-0.3c0.1-0.1,0.2-0.1,0.3,0
				c0.3,0.2,0.5,0.4,0.8,0.6c0.1,0.1,0.1,0.2,0,0.3C35.9,63,35.9,63.1,35.8,63.1z"/>
		
			<path fill="#E84B55" d="M12.3,31.1c-0.1,0-0.1,0-0.1-0.1c-1.7-1.7-2.6-3.9-2.6-6.2c0-2.3,0.9-4.6,2.6-6.2c3.4-3.4,9-3.4,12.4,0
				c0.1,0.1,0.1,0.2,0,0.3s-0.2,0.1-0.3,0c-1.6-1.6-3.7-2.5-5.9-2.5s-4.3,0.9-5.9,2.5c-1.6,1.6-2.5,3.7-2.5,5.9
				c0,2.2,0.9,4.3,2.5,5.9c0.1,0.1,0.1,0.2,0,0.3C12.4,31.1,12.4,31.1,12.3,31.1z"/>
		
			<path fill="#E84B55" d="M8.6,34.8c-0.1,0-0.1,0-0.1-0.1c-2.6-2.6-4.1-6.2-4.1-9.9c0-3.7,1.5-7.3,4.1-9.9c5.5-5.5,14.4-5.5,19.8,0
				c0.1,0.1,0.1,0.2,0,0.3s-0.2,0.1-0.3,0c-5.3-5.3-13.9-5.3-19.2,0c-2.6,2.6-4,6-4,9.6c0,3.6,1.4,7.1,4,9.6c0.1,0.1,0.1,0.2,0,0.3
				C8.7,34.8,8.7,34.8,8.6,34.8z"/>
		</svg>

		<!-- icon microservices svg -->
		<svg version="1.1" id="icon-microservices" xmlns="http://www.w3.org/2000/svg" xmlns:xlink="http://www.w3.org/1999/xlink" x="0px" y="0px"
			viewBox="0 0 80 80" enable-background="new 0 0 80 80" xml:space="preserve">

			<path fill="#DCE1E5" d="M49.2,27.9l-1.4-1.4c-0.2-0.2-0.2-0.6,0-0.8l6.9-6.9c0.2-0.2,0.6-0.2,0.8,0l6.9,6.9c0.2,0.2,0.2,0.6,0,0.8
				l-6.9,6.9c-0.2,0.2-0.6,0.2-0.8,0L51.3,30"/>
			<path fill="#DCE1E5" d="M63.4,42L62,40.7c-0.2-0.2-0.2-0.6,0-0.8l6.9-6.9c0.2-0.2,0.6-0.2,0.8,0l6.9,6.9c0.2,0.2,0.2,0.6,0,0.8
				l-6.9,6.9c-0.2,0.2-0.6,0.2-0.8,0l-3.4-3.4"/>
			<path fill="#DCE1E5" d="M49.2,56.2l-1.4-1.4c-0.2-0.2-0.2-0.6,0-0.8l6.9-6.9c0.2-0.2,0.6-0.2,0.8,0l6.9,6.9c0.2,0.2,0.2,0.6,0,0.8
				l-6.9,6.9c-0.2,0.2-0.6,0.2-0.8,0l-3.4-3.4"/>
			<path fill="#DCE1E5" d="M36.1,69.3l-1.4-1.4c-0.2-0.2-0.2-0.6,0-0.8l6.9-6.9c0.2-0.2,0.6-0.2,0.8,0l6.9,6.9c0.2,0.2,0.2,0.6,0,0.8
				l-6.9,6.9c-0.2,0.2-0.6,0.2-0.8,0l-3.4-3.4"/>
			<path fill="#DCE1E5" d="M22.5,55.7l-1.4-1.4c-0.2-0.2-0.2-0.6,0-0.8l6.9-6.9c0.2-0.2,0.6-0.2,0.8,0l6.9,6.9c0.2,0.2,0.2,0.6,0,0.8
				l-6.9,6.9c-0.2,0.2-0.6,0.2-0.8,0l-3.4-3.4"/>
			<path fill="#DCE1E5" d="M8.3,41.5L7,40.2c-0.2-0.2-0.2-0.6,0-0.8l6.9-6.9c0.2-0.2,0.6-0.2,0.8,0l6.9,6.9c0.2,0.2,0.2,0.6,0,0.8
				L14.7,47c-0.2,0.2-0.6,0.2-0.8,0l-3.4-3.4"/>
			<path fill="#DCE1E5" d="M21.5,28.4L20.1,27c-0.2-0.2-0.2-0.6,0-0.8l6.9-6.9c0.2-0.2,0.6-0.2,0.8,0l6.9,6.9c0.2,0.2,0.2,0.6,0,0.8
				l-6.9,6.9c-0.2,0.2-0.6,0.2-0.8,0l-3.4-3.4"/>
			<path fill="#DCE1E5" d="M48.6,39.6l-6.9-6.9c-0.2-0.2-0.6-0.2-0.8,0l-1,1l5.8,5.8c0.2,0.2,0.2,0.6,0,0.8l-5.8,5.8l1,1
				c0.2,0.2,0.6,0.2,0.8,0l6.9-6.9C48.8,40.2,48.8,39.8,48.6,39.6z"/>
			<path fill="#DCE1E5" d="M35.6,14.2l-1.4-1.4c-0.2-0.2-0.2-0.6,0-0.8l6.9-6.9c0.2-0.2,0.6-0.2,0.8,0l6.9,6.9c0.2,0.2,0.2,0.6,0,0.8
				l-6.9,6.9c-0.2,0.2-0.6,0.2-0.8,0l-3.4-3.4"/>
			<path fill="none" stroke="#68717D" stroke-width="0.5" stroke-linecap="round" stroke-miterlimit="10" d="M32.5,14.3l-1.4-1.4
				c-0.2-0.2-0.2-0.6,0-0.8L38,5.2c0.2-0.2,0.6-0.2,0.8,0l6.9,6.9c0.2,0.2,0.2,0.6,0,0.8l-6.9,6.9c-0.2,0.2-0.6,0.2-0.8,0l-3.4-3.4"/>
			<path fill="none" stroke="#68717D" stroke-width="0.5" stroke-linecap="round" stroke-miterlimit="10" d="M48.3,22.4l3.4-3.4
				c0.2-0.2,0.6-0.2,0.8,0l6.9,6.9c0.2,0.2,0.2,0.6,0,0.8l-6.9,6.9c-0.2,0.2-0.6,0.2-0.8,0l-6.9-6.9c-0.2-0.2-0.2-0.6,0-0.8l1.5-1.5"
				/>
			<path fill="none" stroke="#68717D" stroke-width="0.5" stroke-linecap="round" stroke-miterlimit="10" d="M62.6,44.4l-4-4
				c-0.2-0.2-0.2-0.6,0-0.8l6.9-6.9c0.2-0.2,0.6-0.2,0.8,0l6.9,6.9c0.2,0.2,0.2,0.6,0,0.8l-6.9,6.9c-0.2,0.2-0.6,0.2-0.8,0"/>
			<path fill="none" stroke="#68717D" stroke-width="0.5" stroke-linecap="round" stroke-miterlimit="10" d="M20.2,23.1l4.1-4.1
				c0.2-0.2,0.6-0.2,0.8,0l6.9,6.9c0.2,0.2,0.2,0.6,0,0.8l-6.9,6.9c-0.2,0.2-0.6,0.2-0.8,0l-6.9-6.9c-0.2-0.2-0.2-0.6,0-0.8"/>
			<path fill="none" stroke="#68717D" stroke-width="0.5" stroke-linecap="round" stroke-miterlimit="10" d="M51.8,46.5
				c0.2-0.2,0.6-0.2,0.8,0l6.9,6.9c0.2,0.2,0.2,0.6,0,0.8L52.6,61c-0.2,0.2-0.6,0.2-0.8,0l-6.9-6.9c-0.2-0.2-0.2-0.6,0-0.8l4.6-4.6"/>
			<path fill="none" stroke="#68717D" stroke-width="0.5" stroke-linecap="round" stroke-miterlimit="10" d="M7.9,44.7l-4.3-4.3
				c-0.2-0.2-0.2-0.6,0-0.8l6.9-6.9c0.2-0.2,0.6-0.2,0.8,0l6.9,6.9c0.2,0.2,0.2,0.6,0,0.8l-6.9,6.9c-0.2,0.2-0.6,0.2-0.8,0"/>
			<path fill="none" stroke="#68717D" stroke-width="0.5" stroke-linecap="round" stroke-miterlimit="10" d="M19.9,50.8l4.3-4.3
				c0.2-0.2,0.6-0.2,0.8,0l6.9,6.9c0.2,0.2,0.2,0.6,0,0.8L25.1,61c-0.2,0.2-0.6,0.2-0.8,0l-6.9-6.9c-0.2-0.2-0.2-0.6,0-0.8"/>
			<path fill="none" stroke="#68717D" stroke-width="0.5" stroke-linecap="round" stroke-miterlimit="10" d="M32.8,69.5l-1.6-1.6
				c-0.2-0.2-0.2-0.6,0-0.8l6.9-6.9c0.2-0.2,0.6-0.2,0.8,0l6.9,6.9c0.2,0.2,0.2,0.6,0,0.8l-6.9,6.9c-0.2,0.2-0.6,0.2-0.8,0l-2.2-2.2"
				/>
			
				<line fill="none" stroke="#68717D" stroke-width="0.5" stroke-linecap="round" stroke-miterlimit="10" x1="38.4" y1="47.4" x2="38.4" y2="60"/>
			
				<line fill="none" stroke="#68717D" stroke-width="0.5" stroke-linecap="round" stroke-miterlimit="10" x1="38.4" y1="28.4" x2="38.4" y2="32.6"/>
			
				<line fill="none" stroke="#68717D" stroke-width="0.5" stroke-linecap="round" stroke-miterlimit="10" x1="38.4" y1="25.6" x2="38.4" y2="26.3"/>
			
				<line fill="none" stroke="#68717D" stroke-width="0.5" stroke-linecap="round" stroke-miterlimit="10" x1="38.4" y1="20" x2="38.4" y2="23.1"/>
			
				<line fill="none" stroke="#68717D" stroke-width="0.5" stroke-linecap="round" stroke-miterlimit="10" x1="31" y1="40" x2="18.4" y2="40"/>
			
				<line fill="none" stroke="#68717D" stroke-width="0.5" stroke-linecap="round" stroke-miterlimit="10" x1="58.5" y1="40" x2="45.9" y2="40"/>
			
				<line fill="none" stroke="#E84B55" stroke-width="0.5" stroke-linecap="round" stroke-miterlimit="10" x1="34.6" y1="36.2" x2="28.5" y2="30.1"/>
			
				<line fill="none" stroke="#E84B55" stroke-width="0.5" stroke-linecap="round" stroke-miterlimit="10" x1="48.3" y1="49.9" x2="42.3" y2="43.8"/>
			
				<line fill="none" stroke="#E84B55" stroke-width="0.5" stroke-linecap="round" stroke-miterlimit="10" x1="42.3" y1="36.2" x2="48.3" y2="30.1"/>
			
				<line fill="none" stroke="#E84B55" stroke-width="0.5" stroke-linecap="round" stroke-miterlimit="10" x1="28.5" y1="49.9" x2="34.6" y2="43.8"/>
			<path fill="none" stroke="#E84B55" stroke-width="0.5" stroke-linecap="round" stroke-miterlimit="10" d="M38,47.2l-6.8-6.8
				c-0.3-0.3-0.3-0.7,0-0.9l6.8-6.8c0.3-0.3,0.7-0.3,0.9,0l6.8,6.8c0.3,0.3,0.3,0.7,0,0.9l-6.8,6.8C38.6,47.5,38.2,47.5,38,47.2z"/>

		</svg>

		<!-- icon bigdata svg -->
		<svg version="1.1" id="icon-bigdata" xmlns="http://www.w3.org/2000/svg" xmlns:xlink="http://www.w3.org/1999/xlink" x="0px" y="0px"
	 	viewBox="0 0 80 80" enable-background="new 0 0 80 80" xml:space="preserve">

		<path fill="#DCE1E5" d="M73.9,38.2l-1.6-1.6c-0.4-0.4-1-0.6-1.5-0.6h-2.6l0.1-1.9c0-0.7-0.3-1.4-0.8-1.8l-3-3v-0.8
			c0-1-0.5-1.9-1.3-2.5l-8.9-6.4c-0.4-0.3-1-0.5-1.5-0.5h-1.2c-0.6,0-1.2,0.3-1.7,0.7L48.6,21l-0.4-0.4l-1.9-1.9
			c-0.6-0.6-1.4-1-2.3-1h-3c-0.6,0-1.1,0.1-1.7,0.3l-11.4,3.8c-0.7,0.2-1.3,0.6-1.8,1.1l-2.2,2.2h-1.1c-0.5,0-1,0.2-1.4,0.6
			l-3.6,3.6h-0.4c-1.1,0-2.2,0.5-2.8,1.4l-5.1,7c-0.5,0.6-0.7,1.4-0.7,2.2v1.8c0,0.5,0.2,1,0.6,1.4l1.3,1.3c0.4,0.4,1,0.6,1.5,0.6
			h0.3v2.7c0,0.6,0.2,1.1,0.6,1.5l2.4,2.4c0.9,0.9,2.1,1.4,3.4,1.4h3.2h1.4c0,0,1,0,1,0.7s-0.1,2-0.1,2c0,1.3,1.1,2.4,2.4,2.4h12.6
			c1.3,0,2.5-0.5,3.4-1.4l1.6-1.6c0.5-0.5,0.8-1.3,0.8-2v-2.9c0-0.4-0.2-0.8-0.4-1.1l-1.5-1.5c0,0-0.5-1.2,1.1-1l4.3,0.6
			c2.4,0.3,4.1,2.4,4.1,4.8v3.2c0,0.8,0.3,1.6,0.9,2.1l1.7,1.7c0.6,0.6,1.5,1,2.3,1h6c0.7,0,1.3-0.3,1.8-0.7l2-2
			c0.4-0.4,0.8-1,0.7-1.6c-0.6-2.9,0.8-3.2,0.8-3.2h0.8c0.8,0,1.6-0.3,2.2-0.9l1.8-1.8c0.7-0.7,1.1-1.6,1.1-2.6v-6.8
			C74.8,39.7,74.5,38.8,73.9,38.2z M25.2,40.5c-0.6-2.1,0.7-4.2,2.8-4.8s4.2,0.7,4.8,2.8c0.6,2.1-0.7,4.2-2.8,4.8
			C27.9,43.8,25.7,42.6,25.2,40.5z M34.7,53.9c-2.2,0.6-4.5-0.7-5.1-2.9c-0.6-2.2,0.7-4.5,2.9-5.1c2.2-0.6,4.5,0.7,5.1,2.9
			S36.9,53.4,34.7,53.9z M40.1,39.3c-2.2,0.6-4.5-0.7-5.1-2.9c-0.6-2.2,0.7-4.5,2.9-5.1c2.2-0.6,4.5,0.7,5.1,2.9
			C43.6,36.5,42.3,38.7,40.1,39.3z M55.7,38.6c-2.1,0.6-4.2-0.7-4.8-2.8c-0.6-2.1,0.7-4.2,2.8-4.8c2.1-0.6,4.2,0.7,4.8,2.8
			C59.1,35.9,57.8,38.1,55.7,38.6z"/>
	
				<path fill="#68717D" d="M36.8,56.6H24.2c-1.5,0-2.6-1.2-2.6-2.6c0-0.1,0.1-0.2,0.2-0.2s0.2,0.1,0.2,0.2c0,1.2,1,2.1,2.1,2.1
					h12.6c1.2,0,2.4-0.5,3.2-1.3l1.6-1.6c0.5-0.5,0.8-1.1,0.8-1.8v-2.9c0-0.3-0.1-0.7-0.4-0.9l-2.8-2.8c-0.1-0.1-0.1-0.3,0-0.4
					s0.3-0.1,0.4,0l2.8,2.8c0.3,0.3,0.5,0.8,0.5,1.3v2.9c0,0.8-0.3,1.6-0.9,2.2l-1.6,1.6C39.4,56.1,38.1,56.6,36.8,56.6z"/>
			
				<path fill="#68717D" d="M31.1,50.2H15.6c-1.3,0-2.6-0.5-3.6-1.5l-2.4-2.4c-0.5-0.5-0.7-1.1-0.7-1.7c0-0.1,0.1-0.2,0.2-0.2
					s0.2,0.1,0.2,0.2c0,0.5,0.2,1,0.6,1.4l2.4,2.4c0.9,0.9,2,1.3,3.2,1.3h15.5c0.1,0,0.2,0.1,0.2,0.2S31.2,50.2,31.1,50.2z"/>
			
				<path fill="#68717D" d="M21.2,42.1H8.8c-0.6,0-1.3-0.3-1.7-0.7l-1.3-1.3c-0.4-0.4-0.6-1-0.6-1.6v-1.8c0-0.8,0.3-1.7,0.8-2.3
					l5.1-7c0.7-1,1.8-1.5,3-1.5h1.5c0.5,0,0.9,0.2,1.3,0.5l9.7,9.7c0.1,0.1,0.1,0.3,0,0.4s-0.3,0.1-0.4,0l-9.7-9.7
					c-0.2-0.2-0.6-0.4-0.9-0.4h-1.5c-1,0-2,0.5-2.6,1.3l-5.1,7c-0.4,0.6-0.7,1.3-0.7,2v1.8c0,0.5,0.2,0.9,0.5,1.2l1.3,1.3
					c0.4,0.4,0.9,0.6,1.4,0.6h12.4c0.1,0,0.2,0.1,0.2,0.2S21.4,42.1,21.2,42.1z"/>
			
				<path fill="#68717D" d="M30.2,29.9c-0.1,0-0.1,0-0.2-0.1l-7.1-7.1c-0.3-0.3-0.8-0.5-1.2-0.5h-2.3c-0.5,0-0.9,0.2-1.2,0.5
					l-3.6,3.6c-0.1,0.1-0.3,0.1-0.4,0s-0.1-0.3,0-0.4l3.6-3.6c0.4-0.4,1-0.6,1.6-0.6h2.3c0.6,0,1.1,0.2,1.6,0.6l7.1,7.1
					c0.1,0.1,0.1,0.3,0,0.4C30.3,29.9,30.2,29.9,30.2,29.9z"/>
			
				<path fill="#68717D" d="M46.8,61.4c-0.1,0-0.2-0.1-0.2-0.2V20.8c0-0.8-0.3-1.6-0.9-2.1l-2.9-2.9c-0.6-0.6-1.3-0.9-2.1-0.9h-3
					c-0.5,0-1.1,0.1-1.6,0.3c-0.1,0-0.3,0-0.3-0.2c0-0.1,0-0.3,0.2-0.3c0.6-0.2,1.2-0.3,1.8-0.3h3c0.9,0,1.8,0.4,2.5,1l2.9,2.9
					c0.7,0.7,1,1.5,1,2.5v40.4C47,61.3,46.9,61.4,46.8,61.4z"/>
			
				<path fill="none" stroke="#68717D" stroke-width="0.5" stroke-linecap="round" stroke-miterlimit="10" d="M29.9,16.9"/>
			
				<path fill="#68717D" d="M29.3,17.2c-0.1,0-0.2-0.1-0.2-0.2c0-0.1,0-0.3,0.2-0.3l0.1,0c0.1,0,0.3,0,0.3,0.2c0,0.1,0,0.3-0.2,0.3
					L29.3,17.2C29.4,17.2,29.3,17.2,29.3,17.2z"/>
			
				<path fill="#68717D" d="M22.8,20.1c-0.1,0-0.1,0-0.2-0.1c-0.1-0.1-0.1-0.3,0-0.4c0.5-0.5,1.2-0.9,1.9-1.2l2-0.7
					c0.1,0,0.3,0,0.3,0.2c0,0.1,0,0.3-0.2,0.3l-2,0.7c-0.6,0.2-1.2,0.6-1.7,1C22.9,20,22.8,20.1,22.8,20.1z"/>
			
				<path fill="#68717D" d="M39,33.2c-0.1,0-0.2-0.1-0.2-0.2v-5.7c0-0.8-0.3-1.6-0.9-2.1l-5.8-5.8c-0.1-0.1-0.1-0.3,0-0.4
					s0.3-0.1,0.4,0l5.8,5.8c0.7,0.7,1,1.6,1,2.5v5.7C39.3,33.1,39.2,33.2,39,33.2z"/>
			
				<path fill="#68717D" d="M57.6,31.7c-0.1,0-0.1,0-0.2-0.1c-0.1-0.1-0.1-0.3,0-0.4l2.7-2.7c0.5-0.5,0.8-1.1,0.8-1.8v-1.4
					c0-0.9-0.4-1.8-1.2-2.3l-9-6.4c-0.4-0.3-0.9-0.4-1.4-0.4h-1.2c-0.6,0-1.1,0.2-1.5,0.6l-1.3,1.3c-0.1,0.1-0.3,0.1-0.4,0
					c-0.1-0.1-0.1-0.3,0-0.4l1.3-1.3c0.5-0.5,1.2-0.8,1.9-0.8h1.2c0.6,0,1.2,0.2,1.7,0.5l9,6.4c0.9,0.6,1.4,1.6,1.4,2.7v1.4
					c0,0.8-0.3,1.6-0.9,2.2l-2.7,2.7C57.7,31.7,57.7,31.7,57.6,31.7z"/>
			
				<path fill="#68717D" d="M59,40.2c-0.1,0-0.1,0-0.2-0.1c-0.1-0.1-0.1-0.3,0-0.4l5.1-5.1c0.5-0.5,0.8-1.1,0.8-1.8v-1.8
					c0-0.6-0.2-1.2-0.7-1.7l-1.1-1.1c-0.1-0.1-0.1-0.3,0-0.4s0.3-0.1,0.4,0l1.1,1.1c0.5,0.5,0.8,1.3,0.8,2v1.8
					c0,0.8-0.3,1.6-0.9,2.2l-5.1,5.1C59.2,40.2,59.1,40.2,59,40.2z"/>
			
				<path fill="#68717D" d="M66.5,49.8h-1.9c-0.9,0-1.7-0.4-2.3-1L61.5,48c-0.2-0.2-0.3-0.5-0.3-0.8c0-0.3,0.1-0.6,0.3-0.8l2.2-2.2
					c0.1-0.1,0.3-0.1,0.4,0s0.1,0.3,0,0.4l-2.2,2.2c-0.1,0.1-0.2,0.3-0.2,0.4s0.1,0.3,0.2,0.4l0.8,0.8c0.5,0.5,1.2,0.8,2,0.8h1.9
					c0.7,0,1.5-0.3,2-0.8l1.8-1.8c0.7-0.7,1-1.5,1-2.4v-6.8c0-0.8-0.3-1.6-0.9-2.1l-1.6-1.6c-0.4-0.4-0.8-0.6-1.4-0.6
					c-0.1,0-0.2-0.1-0.2-0.2s0.1-0.2,0.2-0.2c0.7,0,1.3,0.3,1.7,0.7l1.6,1.6c0.7,0.7,1,1.5,1,2.5v6.8c0,1.1-0.4,2.1-1.2,2.8
					l-1.8,1.8C68.2,49.5,67.4,49.8,66.5,49.8z"/>
			
				<path fill="#68717D" d="M60.7,57.3h-6.8c-0.6,0-1.1-0.2-1.5-0.6c-0.1-0.1-0.1-0.3,0-0.4s0.3-0.1,0.4,0c0.3,0.3,0.8,0.5,1.2,0.5
					h6.8c0.5,0,0.9-0.2,1.2-0.5l2.2-2.2c0.3-0.3,0.5-0.7,0.5-1.2v-3.3c0-0.1,0.1-0.2,0.2-0.2s0.2,0.1,0.2,0.2v3.3
					c0,0.6-0.2,1.1-0.6,1.5l-2.2,2.2C61.8,57.1,61.3,57.3,60.7,57.3z"/>
			
				<path fill="#68717D" d="M39,38c-0.9,0-1.8-0.5-2.2-1.3c-0.1-0.1,0-0.3,0.1-0.3c0.1-0.1,0.3,0,0.3,0.1c0.4,0.6,1.1,1,1.8,1
					c1.2,0,2.1-1,2.1-2.1c0-1.2-1-2.1-2.1-2.1c-0.6,0-1.2,0.3-1.6,0.7c-0.1,0.1-0.2,0.1-0.4,0c-0.1-0.1-0.1-0.2,0-0.4
					c0.5-0.6,1.2-0.9,2-0.9c1.5,0,2.6,1.2,2.6,2.6S40.5,38,39,38z"/>
			
				<path fill="#68717D" d="M33.6,52.5c-1.5,0-2.6-1.2-2.6-2.6s1.2-2.6,2.6-2.6c0.8,0,1.5,0.3,2,0.9c0.1,0.1,0.1,0.3,0,0.4
					c-0.1,0.1-0.3,0.1-0.4,0c-0.4-0.5-1-0.8-1.6-0.8c-1.2,0-2.1,1-2.1,2.1s1,2.1,2.1,2.1s2.1-1,2.1-2.1c0-0.1,0.1-0.2,0.2-0.2
					s0.2,0.1,0.2,0.2C36.2,51.3,35,52.5,33.6,52.5z"/>
			
			<circle fill="#E84B55" cx="29" cy="39.3" r="1.3"/>
		
			<circle fill="#E84B55" cx="46.6" cy="64.3" r="1.3"/>
		
			<circle fill="#E84B55" cx="54.6" cy="34.6" r="1.3"/>
		
		</svg>

		<!-- icon devops svg  -->
		<svg version="1.1" id="icon-devops" xmlns="http://www.w3.org/2000/svg" xmlns:xlink="http://www.w3.org/1999/xlink" x="0px" y="0px"
	 viewBox="0 0 80 80" enable-background="new 0 0 80 80" xml:space="preserve">

				<path fill="#DCE1E5" d="M67.2,32.3c-0.5-0.1-0.8-0.6-0.8-1.1c0-0.1,0-0.2,0-0.2c0-9.2-5.3-17.9-16.5-17.9c-8.6,0-12,4.6-14.5,9.9
			c-0.3,0.6-1.1,0.8-1.7,0.5c-1.2-0.8-2.7-1.2-4.3-1.2c-4.6,0-8.3,3.7-8.3,8.3c0,0.2,0,0.3,0,0.5c0,0.5-0.4,1-0.9,1.2
			c-5.7,1.4-10,6.6-10,12.8c0,7.3,5.8,13.1,13,13.1h12.6c-0.1-0.2-0.2-0.4-0.2-0.6l0,0c-0.1-0.4,0-0.9,0.2-1.3l0.5-0.7
			c0.5-0.8,1.5-1,2.3-0.5l0.7,0.4c0.3-0.3,0.7-0.5,1.1-0.8L40.4,54c-0.2-0.9,0.4-1.8,1.3-2l0.8-0.2c0.9-0.2,1.8,0.4,2,1.3l0.2,0.8
			c0.5,0,0.9,0.1,1.3,0.3l0.4-0.7c0.5-0.8,1.5-1,2.3-0.5l0.7,0.5c0.8,0.5,1,1.5,0.5,2.3l-0.4,0.7c0.3,0.3,0.5,0.7,0.8,1.1l0.8-0.2
			c0.6-0.1,1.2,0.1,1.6,0.6h11.1c7.2,0,13-5.9,13-13.1C76.7,38.9,72.7,33.9,67.2,32.3z M41.1,39.9c0,0.9-0.7,1.7-1.7,1.7h-0.8
			c-0.1,0.4-0.3,0.9-0.5,1.3l0.6,0.6c0.7,0.7,0.7,1.7,0,2.4l-0.6,0.6c-0.3,0.3-0.7,0.5-1.2,0.5c-0.4,0-0.9-0.2-1.2-0.5l-0.6-0.6
			c-0.4,0.2-0.8,0.4-1.3,0.5v0.8c0,0.9-0.7,1.7-1.7,1.7h-0.8c-0.9,0-1.7-0.7-1.7-1.7v-0.8c-0.4-0.1-0.9-0.3-1.3-0.5l-0.6,0.6
			c-0.3,0.3-0.7,0.5-1.2,0.5h0c-0.4,0-0.9-0.2-1.2-0.5L25,45.8c-0.7-0.7-0.7-1.7,0-2.4l0.6-0.6c-0.2-0.4-0.4-0.8-0.5-1.3h-0.8
			c-0.9,0-1.7-0.7-1.7-1.7v-0.8c0-0.9,0.7-1.7,1.7-1.7H25c0.1-0.4,0.3-0.9,0.5-1.3L25,35.6c-0.7-0.7-0.7-1.7,0-2.4l0.6-0.6
			c0.7-0.7,1.7-0.7,2.4,0l0.6,0.6c0.4-0.2,0.8-0.4,1.3-0.5v-0.8c0-0.9,0.7-1.7,1.7-1.7h0.8c0.9,0,1.7,0.7,1.7,1.7v0.8
			c0.4,0.1,0.9,0.3,1.3,0.5l0.6-0.6c0.3-0.3,0.7-0.5,1.2-0.5c0.4,0,0.9,0.2,1.2,0.5l0.6,0.6c0.7,0.7,0.7,1.7,0,2.4l-0.6,0.6
			c0.2,0.4,0.4,0.8,0.5,1.3h0.8c0.9,0,1.7,0.7,1.7,1.7V39.9z"/>
		
				<path id="XMLID_17_" fill="none" stroke="#68717D" stroke-width="0.5" stroke-linecap="round" stroke-miterlimit="10" d="M38,66.3
				c-0.2,0.4-0.3,0.8-0.2,1.3c0.1,0.4,0.3,0.8,0.7,1.1l0.7,0.5c0.8,0.5,1.8,0.3,2.3-0.5l0.4-0.7c0.4,0.1,0.9,0.2,1.3,0.3l0.2,0.8
				c0.2,0.9,1.1,1.5,2,1.3l0.8-0.2c0.9-0.2,1.5-1.1,1.3-2l-0.2-0.8c0.4-0.2,0.8-0.5,1.1-0.8l0.7,0.4c0.8,0.5,1.8,0.3,2.3-0.5l0.5-0.7
				c0.2-0.4,0.3-0.8,0.2-1.3l0,0c-0.1-0.4-0.3-0.8-0.7-1.1l-0.7-0.4c0.1-0.4,0.2-0.9,0.3-1.3l0.8-0.2c0.9-0.2,1.5-1.1,1.3-2"/>
			<path id="XMLID_16_" fill="none" stroke="#68717D" stroke-width="0.5" stroke-linecap="round" stroke-miterlimit="10" d="
				M50.2,57.7c-0.2-0.4-0.5-0.8-0.8-1.1l0.4-0.7c0.5-0.8,0.3-1.8-0.5-2.3l-0.7-0.5c-0.8-0.5-1.8-0.3-2.3,0.5L46,54.3
				c-0.4-0.1-0.9-0.2-1.3-0.3l-0.2-0.8c-0.2-0.9-1.1-1.5-2-1.3l-0.8,0.2c-0.9,0.2-1.5,1.1-1.3,2l0.2,0.8c-0.4,0.2-0.8,0.5-1.1,0.8
				l-0.7-0.4c-0.8-0.5-1.8-0.3-2.3,0.5L36,56.3c-0.2,0.4-0.3,0.8-0.2,1.3l0,0c0.1,0.4,0.3,0.8,0.7,1.1l0.7,0.4
				c-0.1,0.4-0.2,0.9-0.3,1.3L36,60.5c-0.9,0.2-1.5,1.1-1.3,2l0.2,0.8c0.2,0.9,1.1,1.5,2,1.3"/>
			
				<circle id="XMLID_15_" fill="none" stroke="#E84B55" stroke-width="0.5" stroke-linecap="round" stroke-miterlimit="10" cx="43.9" cy="61.1" r="2.9"/>
		
			<path id="XMLID_33_" fill="none" stroke="#68717D" stroke-width="0.5" stroke-linecap="round" stroke-miterlimit="10" d="
				M35.7,46.4c0.3,0.3,0.7,0.5,1.2,0.5c0.4,0,0.9-0.2,1.2-0.5l0.6-0.6c0.7-0.7,0.7-1.7,0-2.4l-0.6-0.6c0.2-0.4,0.4-0.8,0.5-1.3h0.8
				c0.9,0,1.7-0.7,1.7-1.7v-0.8c0-0.9-0.7-1.7-1.7-1.7h-0.8c-0.1-0.4-0.3-0.9-0.5-1.3l0.6-0.6c0.7-0.7,0.7-1.7,0-2.4l-0.6-0.6
				c-0.3-0.3-0.7-0.5-1.2-0.5l0,0c-0.4,0-0.9,0.2-1.2,0.5l-0.6,0.6c-0.4-0.2-0.8-0.4-1.3-0.5v-0.8c0-0.9-0.7-1.7-1.7-1.7"/>
			<path id="XMLID_34_" fill="none" stroke="#68717D" stroke-width="0.5" stroke-linecap="round" stroke-miterlimit="10" d="
				M29.7,32.7c-0.4,0.1-0.9,0.3-1.3,0.5l-0.6-0.6c-0.7-0.7-1.7-0.7-2.4,0L25,33.2c-0.7,0.7-0.7,1.7,0,2.4l0.6,0.6
				c-0.2,0.4-0.4,0.8-0.5,1.3h-0.8c-0.9,0-1.7,0.7-1.7,1.7v0.8c0,0.9,0.7,1.7,1.7,1.7H25c0.1,0.4,0.3,0.9,0.5,1.3L25,43.4
				c-0.7,0.7-0.7,1.7,0,2.4l0.6,0.6c0.3,0.3,0.7,0.5,1.2,0.5h0c0.4,0,0.9-0.2,1.2-0.5l0.6-0.6c0.4,0.2,0.8,0.4,1.3,0.5v0.8
				c0,0.9,0.7,1.7,1.7,1.7h0.8c0.9,0,1.7-0.7,1.7-1.7"/>
			
				<circle id="XMLID_1_" fill="none" stroke="#E84B55" stroke-width="0.5" stroke-linecap="round" stroke-miterlimit="10" cx="31.8" cy="39.5" r="2.9"/>
		
			<path id="MobileMe_1_" fill="none" stroke="#68717D" stroke-width="0.5" stroke-linecap="round" stroke-miterlimit="10" d="
				M41.2,9.7c0.6-0.1,1.2-0.1,1.9-0.1c11.2,0,16.5,8.7,16.5,17.9c0,0.1,0,0.2,0,0.2c0,0.5,0.3,1,0.8,1.1c5.5,1.5,9.5,6.6,9.5,12.7
				c0,7.3-5.8,13.1-13,13.1"/>
			<path id="MobileMe_6_" fill="none" stroke="#68717D" stroke-width="0.5" stroke-linecap="round" stroke-miterlimit="10" d="
				M38.2,10.3c0.1,0,0.3-0.1,0.4-0.1"/>
			<path id="MobileMe_7_" fill="none" stroke="#68717D" stroke-width="0.5" stroke-linecap="round" stroke-miterlimit="10" d="
				M33.5,12.7c0.4-0.3,0.9-0.7,1.3-1c0,0,0.7-0.4,1.1-0.6c0.1-0.1,0.2-0.1,0.3-0.2"/>
			<path id="MobileMe_2_" fill="none" stroke="#68717D" stroke-width="0.5" stroke-linecap="round" stroke-miterlimit="10" d="
				M30.7,15.8c-0.8,1.2-1.5,2.4-2.1,3.8c-0.3,0.6-1.1,0.8-1.7,0.5c-1.2-0.8-2.7-1.2-4.3-1.2c-4.6,0-8.3,3.7-8.3,8.3
				c0,0.2,0,0.3,0,0.5c0,0.5-0.4,1-0.9,1.2c-5.7,1.4-10,6.6-10,12.8c0,7.3,5.8,13.1,13,13.1h10.8"/>
		
		</svg>

		<!-- icon iot svg -->
		<svg version="1.1" id="icon-iot" xmlns="http://www.w3.org/2000/svg" xmlns:xlink="http://www.w3.org/1999/xlink" x="0px" y="0px"
	 viewBox="0 0 80 80" enable-background="new 0 0 80 80" xml:space="preserve">

			<path fill="#DCE1E5" d="M74.3,43.6L48.2,69.8c-1.8,1.8-4.7,1.8-6.5,0L15.5,43.6c-1.8-1.8-1.8-4.7,0-6.5l26.2-26.2
				c1.8-1.8,4.7-1.8,6.5,0l26.2,26.2C76.2,38.9,76.2,41.8,74.3,43.6z"/>
			
				<line fill="none" stroke="#68717D" stroke-width="0.5" stroke-linecap="round" stroke-miterlimit="10" x1="19.5" y1="56.9" x2="19" y2="56.4"/>
			
				<line fill="none" stroke="#68717D" stroke-width="0.5" stroke-linecap="round" stroke-miterlimit="10" x1="15.4" y1="52.9" x2="12.4" y2="49.9"/>
			<path fill="none" stroke="#68717D" stroke-width="0.5" stroke-linecap="round" stroke-miterlimit="10" d="M7.9,45.4l-2-2
				c-1.8-1.8-1.8-4.7,0-6.5l26.2-26.2c1.8-1.8,4.7-1.8,6.5,0l26.2,26.2c1.8,1.8,1.8,4.7,0,6.5L38.6,69.5c-1.8,1.8-4.7,1.8-6.5,0
				l-8.9-8.9"/>
			
				<line fill="none" stroke="#68717D" stroke-width="0.5" stroke-linecap="round" stroke-miterlimit="10" x1="17.4" y1="23.5" x2="9.4" y2="15.4"/>
			
				<line fill="none" stroke="#68717D" stroke-width="0.5" stroke-linecap="round" stroke-miterlimit="10" x1="59.4" y1="65.5" x2="51.4" y2="57.5"/>
			
				
					<line fill="none" stroke="#68717D" stroke-width="0.5" stroke-linecap="round" stroke-miterlimit="10" x1="45.1" y1="17.2" x2="53.2" y2="9.1"/>
				
					<line fill="none" stroke="#68717D" stroke-width="0.5" stroke-linecap="round" stroke-miterlimit="10" x1="58.2" y1="30.3" x2="66.2" y2="22.2"/>
			
			<circle fill="#E84B55" cx="26.1" cy="40.8" r="3.6"/>
			<circle fill="#E84B55" cx="36.2" cy="30.7" r="3.6"/>
			<circle fill="#E84B55" cx="36.2" cy="50.9" r="3.6"/>
			<circle fill="#E84B55" cx="46.2" cy="40.8" r="3.6"/>
		
		</svg>


		<!-- icon bi svg  -->
		<svg version="1.1" id="icon-bi" xmlns="http://www.w3.org/2000/svg" xmlns:xlink="http://www.w3.org/1999/xlink" x="0px" y="0px"
	 	viewBox="0 0 80 80" enable-background="new 0 0 80 80" xml:space="preserve">

			<path fill="#DCE1E5" d="M67.5,21.9l-0.1,26.6H12.8l0,1.8l0,9.4c0.2,4.2,3.7,7.6,8,7.7l46.1,0.2c4.4,0,8.1-3.6,8.1-8l0.1-29.6
				C75.1,25.6,71.8,22.1,67.5,21.9z"/>
			
				<line fill="none" stroke="#68717D" stroke-width="0.5" stroke-linecap="round" stroke-miterlimit="10" x1="5.3" y1="30" x2="5.3" y2="28.7"/>
			<path fill="none" stroke="#68717D" stroke-width="0.5" stroke-linecap="round" stroke-miterlimit="10" d="M5.3,20.8
				c0-4.4,3.6-8,8.1-8L59.5,13c4.4,0,8,3.6,8,8.1l-0.1,29.6c0,4.4-3.6,8-8.1,8l-46.2-0.2c-4.4,0-8-3.6-8-8.1l0.1-13.9"/>
			<path fill="none" stroke="#68717D" stroke-width="0.5" stroke-linecap="round" stroke-miterlimit="10" d="M67.4,48.7
				c0,0-8.8,0-27.8-0.1c-19-0.1-34.4-0.2-34.4-0.2s15.4,0.1,34.4,0.2C58.6,48.7,67.4,48.7,67.4,48.7z"/>
			<path fill="none" stroke="#E84B55" stroke-width="0.5" stroke-linecap="round" stroke-miterlimit="10" d="M18.8,41.1l10.8-10.8
				c0.9-0.9,2.4-0.9,3.3,0l5.3,5.3c0.9,0.9,2.4,0.9,3.3,0l12.5-12.5"/>
			<path fill="none" stroke="#68717D" stroke-width="0.5" stroke-linecap="round" stroke-miterlimit="10" d="M45.6,66.7L45.6,66.7
				c-3.6-6.2-12.6-6.2-16.2,0l0,0"/>
		
		</svg>


		<!-- icon blockchain svg  -->
		
		<svg version="1.1" id="icon-blockchain" xmlns="http://www.w3.org/2000/svg" xmlns:xlink="http://www.w3.org/1999/xlink" x="0px" y="0px"
	 	viewBox="0 0 80 80" enable-background="new 0 0 80 80" xml:space="preserve">

			<path fill="#DCE1E5" d="M32.7,59.5L36.1,47c0.3-1,0-2-0.7-2.8l-9.1-9.1c-0.7-0.7-1.8-1-2.8-0.7l-12.5,3.3c-1,0.3-1.8,1-2,2
				L5.6,52.2c-0.3,1,0,2,0.7,2.8l9.1,9.1c0.7,0.7,1.8,1,2.8,0.7l12.5-3.3C31.7,61.3,32.5,60.5,32.7,59.5z"/>
		
			<path fill="#DCE1E5" d="M66.5,68.8l3.3-12.5c0.3-1,0-2-0.7-2.8L60,44.5c-0.7-0.7-1.8-1-2.8-0.7l-12.5,3.3c-1,0.3-1.8,1-2,2
				l-3.3,12.5c-0.3,1,0,2,0.7,2.8l9.1,9.1c0.7,0.7,1.8,1,2.8,0.7l12.5-3.3C65.5,70.6,66.2,69.8,66.5,68.8z"/>
		
			<path fill="#DCE1E5" d="M43.3,41.3L56,37.9c0.9-0.2,1.6-1,1.9-1.9l0.7-2.4l-11,2.9c-0.9,0.2-1.9,0-2.5-0.7l-9.3-9.3
				C35,25.9,34.8,24.9,35,24l2.8-10.3L36,14.2c-0.9,0.2-1.6,1-1.9,1.9l-3.4,12.8c-0.2,0.9,0,1.9,0.7,2.5l9.3,9.3
				C41.4,41.3,42.3,41.6,43.3,41.3z"/>
		
			<path fill="#68717D" d="M47,36.9c-0.8,0-1.6-0.3-2.2-0.9l-9.1-9.1c-0.8-0.8-1.1-1.9-0.8-3l3.3-12.5c0.3-1.1,1.1-1.9,2.2-2.2
				l12.5-3.3c1.1-0.3,2.2,0,3,0.8l9.1,9.1c0.8,0.8,1.1,1.9,0.8,3l-3.3,12.5c-0.3,1.1-1.1,1.9-2.2,2.2l-12.5,3.3
				C47.5,36.8,47.2,36.9,47,36.9z M53.6,6.2c-0.2,0-0.5,0-0.7,0.1L40.5,9.6c-0.9,0.2-1.6,0.9-1.8,1.8L35.3,24c-0.2,0.9,0,1.9,0.7,2.5
				l9.1,9.1c0.7,0.7,1.6,0.9,2.5,0.7l12.5-3.3c0.9-0.2,1.6-0.9,1.8-1.8v0l3.3-12.5c0.2-0.9,0-1.9-0.7-2.5l-9.1-9.1
				C55,6.5,54.3,6.2,53.6,6.2z"/>
		
			<path fill="#E84B55" d="M48,31.8c-0.5,0-1-0.2-1.4-0.6L40.4,25c-0.5-0.5-0.7-1.2-0.5-1.9c0-0.1,0.2-0.2,0.3-0.2
				c0.1,0,0.2,0.2,0.2,0.3c-0.1,0.5,0,1.1,0.4,1.4l6.2,6.2c0.4,0.4,0.9,0.5,1.4,0.4l8.5-2.3c0.1,0,0.3,0,0.3,0.2c0,0.1,0,0.3-0.2,0.3
				l-8.5,2.3C48.4,31.7,48.2,31.8,48,31.8z"/>
		
			<path fill="#68717D" d="M22.7,61c-0.8,0-1.5-0.3-2-0.8l-9.3-9.3c-0.7-0.7-1-1.8-0.7-2.8L14,35.3c0.3-1,1-1.8,2-2l4.4-1.2
				c0.1,0,0.3,0,0.3,0.2c0,0.1,0,0.3-0.2,0.3l-4.4,1.2c-0.8,0.2-1.5,0.9-1.7,1.7L11,48.2c-0.2,0.8,0,1.7,0.6,2.3l9.3,9.3
				c0.6,0.6,1.5,0.8,2.3,0.6L36,57c0.8-0.2,1.5-0.9,1.7-1.7l3.4-12.8c0.2-0.8,0-1.7-0.6-2.3L31.2,31c-0.6-0.6-1.5-0.8-2.3-0.6
				c-0.1,0-0.3,0-0.3-0.2c0-0.1,0-0.3,0.2-0.3c1-0.3,2.1,0,2.8,0.7l9.3,9.3c0.7,0.7,1,1.8,0.7,2.8l-3.4,12.8c-0.3,1-1,1.8-2,2
				l-12.8,3.4C23.2,61,22.9,61,22.7,61z"/>
		
			<path fill="#68717D" d="M23.8,31.7c-0.1,0-0.2-0.1-0.2-0.2c0-0.1,0-0.3,0.2-0.3l0.4-0.1c0.1,0,0.3,0,0.3,0.2c0,0.1,0,0.3-0.2,0.3
				L23.8,31.7C23.8,31.7,23.8,31.7,23.8,31.7z"/>
		
			<path fill="#68717D" d="M55.5,69.8c-0.8,0-1.5-0.3-2-0.8l-9.3-9.3c-0.7-0.7-1-1.8-0.7-2.8l3.4-12.8c0.3-1,1-1.8,2-2l12.8-3.4
				c1-0.3,2.1,0,2.8,0.7l3.5,3.5c0.1,0.1,0.1,0.3,0,0.4s-0.3,0.1-0.4,0L64,39.8c-0.6-0.6-1.5-0.8-2.3-0.6l-12.8,3.4
				c-0.8,0.2-1.5,0.9-1.7,1.7L43.8,57c-0.2,0.8,0,1.7,0.6,2.3l9.3,9.3c0.6,0.6,1.5,0.8,2.3,0.6l12.8-3.4c0.8-0.2,1.5-0.9,1.7-1.7
				l3.4-12.8c0.2-0.8,0-1.7-0.6-2.3c-0.1-0.1-0.1-0.3,0-0.4s0.3-0.1,0.4,0c0.7,0.7,1,1.8,0.7,2.8L71,64.3c-0.3,1-1,1.8-2,2l-12.8,3.4
				C56,69.8,55.7,69.8,55.5,69.8z"/>
		
			<path fill="#68717D" d="M70.3,45.9c-0.1,0-0.1,0-0.2-0.1l-0.4-0.4c-0.1-0.1-0.1-0.3,0-0.4s0.3-0.1,0.4,0l0.4,0.4
				c0.1,0.1,0.1,0.3,0,0.4C70.4,45.9,70.3,45.9,70.3,45.9z"/>
		
			<path fill="#E84B55" d="M36.8,41.4c-0.1,0-0.1,0-0.2-0.1l-5.8-5.8c-0.1-0.1-0.1-0.3,0-0.4s0.3-0.1,0.4,0l5.8,5.8
				c0.1,0.1,0.1,0.3,0,0.4C36.9,41.4,36.8,41.4,36.8,41.4z"/>
	
		</svg>


		<!-- icon ui svg  -->

		<svg version="1.1" id="icon-ui" xmlns="http://www.w3.org/2000/svg" xmlns:xlink="http://www.w3.org/1999/xlink" x="0px" y="0px"
	 viewBox="0 0 80 80" enable-background="new 0 0 80 80" xml:space="preserve">

			<path fill="#DCE1E5" d="M70.1,24.1L32.2,24c-3.6,0-6.6,2.9-6.6,6.6l0,16.9L69,47.6l0,1.1c0,3.6-3,6.6-6.6,6.6l-36.8-0.1
				c0.2,3.5,3,6.3,6.6,6.3L70,61.6c3.6,0,6.6-2.9,6.6-6.6l0.1-24.3C76.7,27.1,73.7,24.1,70.1,24.1z"/>
		
			<path fill="#67717C" d="M17.9,32L17.9,32c-0.1,0-0.3-0.1-0.2-0.3l0-1.1c0-0.1,0.1-0.2,0.2-0.2h0c0.1,0,0.2,0.1,0.2,0.3l0,1.1
				C18.2,31.9,18.1,32,17.9,32z"/>
		
			<path fill="#67717C" d="M62.4,55.4C62.4,55.4,62.4,55.4,62.4,55.4l-37.9-0.1c-1.8,0-3.5-0.7-4.8-2c-1.3-1.3-2-3-2-4.9l0-11.4
				c0-0.1,0.1-0.2,0.2-0.2h0c0.1,0,0.2,0.1,0.2,0.3l0,11.5c0,1.7,0.7,3.3,1.8,4.5c1.2,1.2,2.8,1.9,4.5,1.9l37.9,0.1c0,0,0,0,0,0
				c3.5,0,6.3-2.8,6.4-6.3l0.1-24.3c0-1.7-0.7-3.3-1.8-4.5s-2.8-1.9-4.5-1.9l-37.9-0.1c0,0,0,0,0,0c-3.5,0-6.3,2.8-6.4,6.3
				c0,0.1-0.1,0.2-0.2,0.2h0c-0.1,0-0.2-0.1-0.2-0.3c0-3.8,3.1-6.8,6.9-6.8c0,0,0,0,0,0l37.9,0.1c1.8,0,3.5,0.7,4.8,2s2,3,2,4.9
				l-0.1,24.3C69.2,52.3,66.2,55.4,62.4,55.4z"/>
		
			<path fill="#67717C" d="M50.2,62.7C50.2,62.7,50.2,62.7,50.2,62.7l-13.6,0c-0.1,0-0.2-0.1-0.2-0.3c0-0.1,0.1-0.2,0.2-0.2h0
				l13.6,0c0.1,0,0.2,0.1,0.2,0.3C50.5,62.6,50.3,62.7,50.2,62.7z"/>
		
			
				<rect x="43.2" y="21.4" transform="matrix(2.675959e-03 -1 1 2.675959e-03 -3.5965 90.2376)" fill="#67717C" width="0.5" height="51.1"/>
		
			<path fill="#DCE1E5" d="M24.8,62.7l-16.1,0c-0.9,0-1.6-0.7-1.6-1.6l0-16.7l0-2.5l0-2l0-4.5c0-0.9,0.7-1.6,1.6-1.6l16.1,0
				c0.9,0,1.6,0.7,1.6,1.6l0,25.8C26.4,61.9,25.7,62.7,24.8,62.7z"/>
		
			<path fill="#FFFFFF" d="M3.6,37.2l0-5.8c0-0.9,0.7-1.6,1.6-1.6l16.1,0c0.9,0,1.6,0.7,1.6,1.6l0,19.9l-19.3,0l0-3.2"/>
		
			<path fill="#67717C" d="M3.6,41.1c-0.1,0-0.2-0.1-0.2-0.2v-0.1c0-0.1,0.1-0.2,0.2-0.2s0.2,0.1,0.2,0.2v0.1
				C3.9,41,3.8,41.1,3.6,41.1z"/>
		
			<path fill="#67717C" d="M21.3,59.1l-16.1,0c-0.5,0-1-0.2-1.3-0.5c-0.4-0.4-0.5-0.8-0.5-1.3l0-13.4c0-0.1,0.1-0.2,0.2-0.2l0,0
				c0.1,0,0.2,0.1,0.2,0.2l0,13.4c0,0.4,0.1,0.7,0.4,1c0.3,0.3,0.6,0.4,1,0.4l16.1,0c0.8,0,1.4-0.6,1.4-1.4l0-25.8
				c0-0.4-0.1-0.7-0.4-1c-0.3-0.3-0.6-0.4-1-0.4l-16.1,0c0,0,0,0,0,0c-0.4,0-0.7,0.1-1,0.4c-0.3,0.3-0.4,0.6-0.4,1l0,5.8
				c0,0.1-0.1,0.2-0.2,0.2l0,0c-0.1,0-0.2-0.1-0.2-0.2l0-5.8c0-0.5,0.2-1,0.5-1.3s0.8-0.5,1.3-0.5c0,0,0,0,0,0l16.1,0
				c0.5,0,1,0.2,1.3,0.5c0.4,0.4,0.5,0.8,0.5,1.3l0,25.8C23.2,58.2,22.4,59.1,21.3,59.1z"/>
		
			<circle fill="#67717C" cx="13.3" cy="54" r="1.6"/>
		
			<path fill="#E84B54" d="M37.9,35.1h-4.8c-0.2,0-0.4-0.2-0.4-0.4v-4.8c0-0.2,0.2-0.4,0.4-0.4h4.8c0.2,0,0.4,0.2,0.4,0.4v4.8
			C38.3,34.9,38.1,35.1,37.9,35.1z"/>
	
			<path fill="#67717C" d="M54.9,32.6h-11c-0.1,0-0.2-0.1-0.2-0.2s0.1-0.2,0.2-0.2h11c0.1,0,0.2,0.1,0.2,0.2S55.1,32.6,54.9,32.6z"/>
	
			<path fill="#67717C" d="M54.9,39.2H32.8c-0.1,0-0.2-0.1-0.2-0.2s0.1-0.2,0.2-0.2h22.1c0.1,0,0.2,0.1,0.2,0.2S55,39.2,54.9,39.2z"
			/>
	
			<path fill="#E84B54" d="M15.7,40.6h-4.8c-0.2,0-0.4-0.2-0.4-0.4v-4.8c0-0.2,0.2-0.4,0.4-0.4h4.8c0.2,0,0.4,0.2,0.4,0.4v4.8
			C16.1,40.5,15.9,40.6,15.7,40.6z"/>
	
			<path fill="#67717C" d="M16.6,45H10c-0.1,0-0.2-0.1-0.2-0.2s0.1-0.2,0.2-0.2h6.6c0.1,0,0.2,0.1,0.2,0.2S16.7,45,16.6,45z"/>
	
		</svg>

		<svg version="1.1" id="icon-burst" xmlns="http://www.w3.org/2000/svg" xmlns:xlink="http://www.w3.org/1999/xlink" x="0px" y="0px"
	 	viewBox="0 0 260 260" enable-background="new 0 0 260 260" xml:space="preserve">

			<circle fill="#FFFFFF" cx="130" cy="130" r="128.6"/>
	
				<path fill="#67717C" d="M174,99.9c-0.3,0-0.5-0.2-0.5-0.5v-2.7c0-0.3,0.2-0.5,0.5-0.5s0.5,0.2,0.5,0.5v2.7
					C174.5,99.6,174.3,99.9,174,99.9z"/>
			
				<path fill="#67717C" d="M174,90.8c-0.3,0-0.5-0.2-0.5-0.5v-2.7c0-0.3,0.2-0.5,0.5-0.5s0.5,0.2,0.5,0.5v2.7
					C174.5,90.6,174.3,90.8,174,90.8z"/>
			
				<path fill="#67717C" d="M170.8,94h-2.7c-0.3,0-0.5-0.2-0.5-0.5s0.2-0.5,0.5-0.5h2.7c0.3,0,0.5,0.2,0.5,0.5S171.1,94,170.8,94z"
					/>
			
				<path fill="#67717C" d="M179.9,94h-2.7c-0.3,0-0.5-0.2-0.5-0.5s0.2-0.5,0.5-0.5h2.7c0.3,0,0.5,0.2,0.5,0.5S180.2,94,179.9,94z"
					/>
			
				<path fill="#67717C" d="M169.9,98c-0.1,0-0.3,0-0.4-0.1c-0.2-0.2-0.2-0.5,0-0.7l1.8-1.8c0.2-0.2,0.5-0.2,0.7,0s0.2,0.5,0,0.7
					l-1.8,1.8C170.1,98,170,98,169.9,98z"/>
			
				<path fill="#67717C" d="M176.3,91.7c-0.1,0-0.3,0-0.4-0.1c-0.2-0.2-0.2-0.5,0-0.7l1.8-1.8c0.2-0.2,0.5-0.2,0.7,0s0.2,0.5,0,0.7
					l-1.8,1.8C176.5,91.6,176.4,91.7,176.3,91.7z"/>
			
				<path fill="#67717C" d="M171.7,91.7c-0.1,0-0.3,0-0.4-0.1l-1.8-1.8c-0.2-0.2-0.2-0.5,0-0.7s0.5-0.2,0.7,0l1.8,1.8
					c0.2,0.2,0.2,0.5,0,0.7C171.9,91.6,171.8,91.7,171.7,91.7z"/>
			
				<path fill="#67717C" d="M178.1,98c-0.1,0-0.3,0-0.4-0.1l-1.8-1.8c-0.2-0.2-0.2-0.5,0-0.7s0.5-0.2,0.7,0l1.8,1.8
					c0.2,0.2,0.2,0.5,0,0.7C178.3,98,178.2,98,178.1,98z"/>
			
				<path fill="#67717C" d="M118.6,86c-0.3,0-0.5-0.2-0.5-0.5v-2.7c0-0.3,0.2-0.5,0.5-0.5s0.5,0.2,0.5,0.5v2.7
					C119.1,85.8,118.9,86,118.6,86z"/>
			
				<path fill="#67717C" d="M118.6,77c-0.3,0-0.5-0.2-0.5-0.5v-2.7c0-0.3,0.2-0.5,0.5-0.5s0.5,0.2,0.5,0.5v2.7
					C119.1,76.7,118.9,77,118.6,77z"/>
			
				<path fill="#67717C" d="M115.5,80.1h-2.7c-0.3,0-0.5-0.2-0.5-0.5s0.2-0.5,0.5-0.5h2.7c0.3,0,0.5,0.2,0.5,0.5
					S115.8,80.1,115.5,80.1z"/>
			
				<path fill="#67717C" d="M124.6,80.1h-2.7c-0.3,0-0.5-0.2-0.5-0.5s0.2-0.5,0.5-0.5h2.7c0.3,0,0.5,0.2,0.5,0.5
					S124.8,80.1,124.6,80.1z"/>
			
				<path fill="#67717C" d="M114.5,84.2c-0.1,0-0.3,0-0.4-0.1c-0.2-0.2-0.2-0.5,0-0.7l1.8-1.8c0.2-0.2,0.5-0.2,0.7,0s0.2,0.5,0,0.7
					l-1.8,1.8C114.8,84.1,114.7,84.2,114.5,84.2z"/>
			
				<path fill="#67717C" d="M120.9,77.8c-0.1,0-0.3,0-0.4-0.1c-0.2-0.2-0.2-0.5,0-0.7l1.8-1.8c0.2-0.2,0.5-0.2,0.7,0s0.2,0.5,0,0.7
					l-1.8,1.8C121.2,77.7,121.1,77.8,120.9,77.8z"/>
			
				<path fill="#67717C" d="M116.4,77.8c-0.1,0-0.3,0-0.4-0.1l-1.8-1.8c-0.2-0.2-0.2-0.5,0-0.7s0.5-0.2,0.7,0l1.8,1.8
					c0.2,0.2,0.2,0.5,0,0.7C116.6,77.7,116.5,77.8,116.4,77.8z"/>
			
				<path fill="#67717C" d="M122.7,84.2c-0.1,0-0.3,0-0.4-0.1l-1.8-1.8c-0.2-0.2-0.2-0.5,0-0.7s0.5-0.2,0.7,0l1.8,1.8
					c0.2,0.2,0.2,0.5,0,0.7C123,84.1,122.9,84.2,122.7,84.2z"/>
			
				<g enable-background="new    ">
				<path fill="#E84B54" d="M80.3,181.5c-2.1,0-3.8-1.7-3.8-3.8s1.7-3.8,3.8-3.8s3.8,1.7,3.8,3.8S82.3,181.5,80.3,181.5z M80.3,175
					c-1.5,0-2.8,1.2-2.8,2.8c0,1.5,1.2,2.8,2.8,2.8s2.8-1.2,2.8-2.8C83,176.2,81.8,175,80.3,175z"/>
				</g>
				<g enable-background="new    ">
				<path fill="#E84B54" d="M161.3,180.6c-2.1,0-3.8-1.7-3.8-3.8s1.7-3.8,3.8-3.8s3.8,1.7,3.8,3.8S163.3,180.6,161.3,180.6z
					 M161.3,174.1c-1.5,0-2.8,1.2-2.8,2.8c0,1.5,1.2,2.8,2.8,2.8s2.8-1.2,2.8-2.8C164,175.4,162.8,174.1,161.3,174.1z"/>
				</g>
	
		<circle fill="#67717C" cx="167.4" cy="114.8" r="2.4"/>
	
		<circle fill="#67717C" cx="189.1" cy="129.5" r="2.4"/>
	
	<g enable-background="new    ">
		<path fill="#E84B54" d="M64.3,127.1c-2.1,0-3.8-1.7-3.8-3.8s1.7-3.8,3.8-3.8c2.1,0,3.8,1.7,3.8,3.8S66.4,127.1,64.3,127.1z
			 M64.3,120.6c-1.5,0-2.8,1.2-2.8,2.8s1.2,2.8,2.8,2.8c1.5,0,2.8-1.2,2.8-2.8S65.9,120.6,64.3,120.6z"/>
	</g>
	
				<path fill="#67717C" d="M89.1,143.2c-0.1,0-0.3,0-0.4-0.1c-0.2-0.2-0.2-0.5,0-0.7l1.3-1.3c0.2-0.2,0.5-0.2,0.7,0s0.2,0.5,0,0.7
					l-1.3,1.3C89.4,143.1,89.2,143.2,89.1,143.2z"/>
			
				<path fill="#67717C" d="M83.9,148.4c-0.1,0-0.3-0.1-0.4-0.2c-0.2-0.2-0.2-0.5,0-0.7l1.4-1.3c0.2-0.2,0.5-0.2,0.7,0
					s0.2,0.5,0,0.7l-1.4,1.3C84.2,148.3,84,148.4,83.9,148.4z"/>
			
				<path fill="#67717C" d="M90.4,148.4c-0.1,0-0.3,0-0.4-0.1l-1.3-1.3c-0.2-0.2-0.2-0.5,0-0.7s0.5-0.2,0.7,0l1.3,1.3
					c0.2,0.2,0.2,0.5,0,0.7C90.7,148.3,90.5,148.4,90.4,148.4z"/>
			
				<path fill="#67717C" d="M85.4,143.2c-0.1,0-0.2,0-0.3-0.1l-1.4-1.3c-0.2-0.2-0.2-0.5,0-0.7c0.2-0.2,0.5-0.2,0.7,0l1.4,1.3
					c0.2,0.2,0.2,0.5,0,0.7C85.6,143.1,85.5,143.2,85.4,143.2z"/>
			
		<circle fill="#67717C" cx="110.1" cy="181.5" r="2.4"/>
	
	<g enable-background="new    ">
		<path fill="#E84B54" d="M185.4,47.4c-2.1,0-3.8-1.7-3.8-3.8s1.7-3.8,3.8-3.8s3.8,1.7,3.8,3.8S187.4,47.4,185.4,47.4z M185.4,40.9
			c-1.5,0-2.8,1.2-2.8,2.8s1.2,2.8,2.8,2.8c1.5,0,2.8-1.2,2.8-2.8S186.9,40.9,185.4,40.9z"/>
	</g>
	<g enable-background="new    ">
		<path fill="#E84B54" d="M152.1,89.8l-4.6-6.3c-0.1-0.1-0.2-0.1-0.2,0l-3.1,7.1c0,0.1,0,0.2,0.1,0.2L152,90
			C152.1,90,152.1,89.9,152.1,89.8z"/>
	</g>
	
		<path fill="#67717C" d="M80.4,101.3l-2,5.4c0,0.1,0,0.2,0.1,0.1l5.8-1c0.1,0,0.1-0.1,0.1-0.2l-3.7-4.6
			C80.6,101.2,80.5,101.2,80.4,101.3z"/>
	
		<path fill="#67717C" d="M138.3,175.1l-2,5.4c0,0.1,0,0.2,0.1,0.1l5.8-1c0.1,0,0.1-0.1,0.1-0.2l-3.7-4.6
			C138.5,175,138.4,175,138.3,175.1z"/>
	
	<g enable-background="new    ">
		<path fill="#E84B54" d="M101.4,92.2l-2.5-7.4c0-0.1-0.2-0.1-0.2,0l-5.1,5.9c-0.1,0.1,0,0.2,0.1,0.2l7.6,1.4
			C101.3,92.5,101.4,92.4,101.4,92.2z"/>
	</g>
	
						<line fill="#E84B54" x1="130" y1="10.8" x2="130" y2="29.2"/>
						<rect x="129.5" y="10.8" fill="#E84B54" width="1" height="18.4"/>
					
						<line fill="#E84B54" x1="130" y1="230.8" x2="130" y2="249.2"/>
						<rect x="129.5" y="230.8" fill="#E84B54" width="1" height="18.4"/>
					
						<line fill="#E84B54" x1="249.2" y1="130" x2="230.8" y2="130"/>
						<rect x="230.8" y="129.5" fill="#E84B54" width="18.4" height="1"/>
					
						<line fill="#E84B54" x1="29.2" y1="130" x2="10.8" y2="130"/>
						<rect x="10.8" y="129.5" fill="#E84B54" width="18.4" height="1"/>
					
						<line fill="#E84B54" x1="45.7" y1="45.7" x2="58.7" y2="58.7"/>
						
							<rect x="51.7" y="43" transform="matrix(0.7071 -0.7071 0.7071 0.7071 -21.6295 52.2183)" fill="#E84B54" width="1" height="18.4"/>
					
						<line fill="#E84B54" x1="201.3" y1="201.3" x2="214.3" y2="214.3"/>
						
							<rect x="207.3" y="198.6" transform="matrix(0.7071 -0.7071 0.7071 0.7071 -86.066 207.7817)" fill="#E84B54" width="1" height="18.4"/>
					
						<line fill="#E84B54" x1="214.3" y1="45.7" x2="201.3" y2="58.7"/>
						
							<rect x="198.6" y="51.7" transform="matrix(0.7071 -0.7071 0.7071 0.7071 23.934 162.2182)" fill="#E84B54" width="18.4" height="1"/>
					
						<line fill="#E84B54" x1="58.7" y1="201.3" x2="45.7" y2="214.3"/>
						
							<rect x="43" y="207.3" transform="matrix(0.7071 -0.7071 0.7071 0.7071 -131.6295 97.7817)" fill="#E84B54" width="18.4" height="1"/>
					
						<line fill="#E84B54" x1="85.2" y1="19.5" x2="92.1" y2="36.6"/>
						
							<rect x="88.1" y="18.9" transform="matrix(0.9266 -0.376 0.376 0.9266 -4.0495 35.3862)" fill="#E84B54" width="1" height="18.4"/>
					
						<line fill="#E84B54" x1="167.9" y1="223.4" x2="174.8" y2="240.5"/>
						
							<rect x="170.9" y="222.7" transform="matrix(0.9266 -0.376 0.376 0.9266 -74.6244 81.4357)" fill="#E84B54" width="1" height="18.4"/>
					
						<line fill="#E84B54" x1="240.5" y1="85.2" x2="223.4" y2="92.1"/>
						
							<rect x="222.7" y="88.1" transform="matrix(0.927 -0.3751 0.3751 0.927 -16.3168 93.4679)" fill="#E84B54" width="18.4" height="1"/>
					
						<line fill="#E84B54" x1="36.6" y1="167.9" x2="19.5" y2="174.8"/>
						
							<rect x="18.9" y="170.9" transform="matrix(0.9265 -0.3763 0.3763 0.9265 -62.4127 23.1546)" fill="#E84B54" width="18.4" height="1"/>
					
						<line fill="#E84B54" x1="20.2" y1="83.6" x2="37.2" y2="90.8"/>
						
							<rect x="28.2" y="77.9" transform="matrix(0.3894 -0.9211 0.9211 0.3894 -62.7718 79.6413)" fill="#E84B54" width="1" height="18.4"/>
					
						<line fill="#E84B54" x1="222.8" y1="169.2" x2="239.8" y2="176.4"/>
						
							<rect x="230.8" y="163.6" transform="matrix(0.3894 -0.9211 0.9211 0.3894 -17.9518 318.59)" fill="#E84B54" width="1" height="18.4"/>
					
						<line fill="#E84B54" x1="176.4" y1="20.2" x2="169.2" y2="37.2"/>
						
							<rect x="163.6" y="28.2" transform="matrix(0.3893 -0.9211 0.9211 0.3893 79.127 176.7145)" fill="#E84B54" width="18.4" height="1"/>
					
						<line fill="#E84B54" x1="90.8" y1="222.8" x2="83.6" y2="239.8"/>
						
							<rect x="77.9" y="230.8" transform="matrix(0.3888 -0.9213 0.9213 0.3888 -159.8414 221.6769)" fill="#E84B54" width="18.4" height="1"/>
					
		</svg>

		<svg version="1.1" id="icon-tagline" xmlns="http://www.w3.org/2000/svg" xmlns:xlink="http://www.w3.org/1999/xlink" x="0px" y="0px"
	 viewBox="0 0 215.4 220" enable-background="new 0 0 215.4 220" xml:space="preserve">

		<path fill="#DCE1E5" d="M32.9,138.9h-1.3c-0.1-0.5-0.3-1-0.6-1.5l0.9-0.9c0.1-0.1,0.1-0.4,0-0.5l-1.5-1.5c-0.1-0.1-0.4-0.1-0.5,0
			l-0.9,0.9c-0.5-0.3-1-0.5-1.5-0.6v-1.3c0-0.2-0.2-0.4-0.4-0.4H25c-0.2,0-0.4,0.2-0.4,0.4v1.3c-0.5,0.1-1,0.3-1.5,0.6l-0.9-0.9
			c-0.1-0.1-0.4-0.1-0.5,0l-1.5,1.5c-0.1,0.1-0.1,0.4,0,0.5l0.9,0.9c-0.3,0.5-0.5,1-0.6,1.5h-1.3c-0.2,0-0.4,0.2-0.4,0.4v2.2
			c0,0.2,0.2,0.4,0.4,0.4h1.3c0.1,0.5,0.3,1,0.6,1.5l-0.9,0.9c-0.1,0.1-0.1,0.4,0,0.5l1.5,1.5c0.1,0.1,0.4,0.1,0.5,0l0.9-0.9
			c0.5,0.3,1,0.5,1.5,0.6v1.3c0,0.2,0.2,0.4,0.4,0.4h2.2c0.2,0,0.4-0.2,0.4-0.4v-1.3c0.5-0.1,1-0.3,1.5-0.6l0.9,0.9
			c0.1,0.1,0.4,0.1,0.5,0l1.5-1.5c0.1-0.1,0.1-0.4,0-0.5l-0.9-0.9c0.3-0.5,0.5-1,0.6-1.5h1.3c0.2,0,0.4-0.2,0.4-0.4v-2.2
			C33.3,139.1,33.1,138.9,32.9,138.9z"/>
		<path fill="none" stroke="#67717C" stroke-width="0.5" stroke-linecap="round" stroke-miterlimit="10" d="M19.3,137.7h-0.6
			c-0.2,0-0.4,0.2-0.4,0.4v2.2c0,0.2,0.2,0.4,0.4,0.4H20c0.1,0.5,0.3,1,0.6,1.5l-0.9,0.9c-0.1,0.1-0.1,0.4,0,0.5l1.5,1.5
			c0.1,0.1,0.4,0.1,0.5,0l0.9-0.9c0.5,0.3,1,0.5,1.5,0.6v1.3c0,0.2,0.2,0.4,0.4,0.4h2.2c0.2,0,0.4-0.2,0.4-0.4v-1.3
			c0.5-0.1,1-0.3,1.5-0.6l0.9,0.9c0.1,0.1,0.4,0.1,0.5,0l1.5-1.5c0.1-0.1,0.1-0.4,0-0.5l-0.9-0.9c0.3-0.5,0.5-1,0.6-1.5h1.3
			c0.2,0,0.4-0.2,0.4-0.4V138c0-0.2-0.2-0.4-0.4-0.4h-1.3c-0.1-0.5-0.3-1-0.6-1.5l0.9-0.9c0.1-0.1,0.1-0.4,0-0.5l-1.5-1.5
			c-0.1-0.1-0.4-0.1-0.5,0l-0.9,0.9c-0.5-0.3-1-0.5-1.5-0.6v-1.3c0-0.2-0.2-0.4-0.4-0.4h-2.2c-0.2,0-0.4,0.2-0.4,0.4v1.3
			c-0.5,0.1-1,0.3-1.5,0.6l-0.9-0.9c-0.1-0.1-0.4-0.1-0.5,0l-1.5,1.5c-0.1,0.1-0.1,0.4,0,0.5l0.9,0.9"/>
		<circle fill="#FFFFFF" cx="25.6" cy="139.1" r="3.6"/>
		<path fill="none" stroke="#E84B54" stroke-width="0.5" stroke-linecap="round" stroke-miterlimit="10" d="M25.6,142.7
			c-2,0-3.6-1.6-3.6-3.6s1.6-3.6,3.6-3.6s3.6,1.6,3.6,3.6c0,0.7-0.2,1.4-0.6,2"/>
	
		<circle fill="#DCE1E5" cx="36" cy="96.5" r="7.2"/>
		<path fill="none" stroke="#67717C" stroke-width="0.5" stroke-linecap="round" stroke-miterlimit="10" d="M33.8,88.4
			c-0.6,0.1-1.3,0.2-1.8,0.4"/>
		<path fill="none" stroke="#67717C" stroke-width="0.5" stroke-linecap="round" stroke-miterlimit="10" d="M35.3,88.4
			c-0.1,0-0.2,0-0.3,0"/>
		<path fill="none" stroke="#67717C" stroke-width="0.5" stroke-linecap="round" stroke-miterlimit="10" d="M30.5,89.5
			c-0.4,0.3-0.8,0.6-1.1,0.9c-1.2,1.1-2,2.6-2.2,4.3c-0.3,2.2,0.4,4.2,1.6,5.7l-1,3.5c0,0.1,0.1,0.3,0.2,0.2l3.9-1.5
			c1.3,0.5,2.9,0.7,4.5,0.3c2.9-0.7,5.1-3.2,5.5-6.1c0.5-3.8-1.9-7.1-5.2-8.1"/>
		<path fill="#E84B54" d="M36.7,95.8l-3.3-1.9c-0.1-0.1-0.2,0-0.2,0.1v3.9c0,0.1,0.1,0.2,0.2,0.1l3.3-1.9
			C36.8,96,36.8,95.8,36.7,95.8z"/>
	
		<path fill="none" stroke="#67717C" stroke-width="0.5" stroke-linecap="round" stroke-miterlimit="10" d="M101.6,186.5
			c0-0.1,0.1-0.1,0.1-0.2"/>
		<path fill="none" stroke="#67717C" stroke-width="0.5" stroke-linecap="round" stroke-miterlimit="10" d="M101.1,188.2
			c0.1-0.2,0.1-0.5,0.2-0.7"/>
		<path fill="#DCE1E5" d="M117.2,196.9l-11.5-2.7l-4.7,3c-0.1,0.1-0.2,0-0.2-0.2l1.8-7.7c0.2-0.7,0.4-1.3,0.7-1.8
			c0.1-0.2,0.2-0.4,0.3-0.6c0.2-0.3,0.3-0.5,0.5-0.7c1.9-2.5,5.2-3.8,8.5-3.1l0,0c4.5,1,7.2,5.5,6.2,9.9l-0.8,3.4
			C117.8,196.8,117.5,197,117.2,196.9z"/>
		<path fill="none" stroke="#67717C" stroke-width="0.5" stroke-linecap="round" stroke-miterlimit="10" d="M102.5,185
			c1.9-2.5,5.2-3.8,8.5-3.1l0,0c4.5,1,7.2,5.5,6.2,9.9l-0.8,3.4c-0.1,0.3-0.4,0.5-0.7,0.4l-11.5-2.7l-4.7,3c-0.1,0.1-0.2,0-0.2-0.2
			l1.5-6.5"/>
		<path fill="none" stroke="#E84B54" stroke-width="0.5" stroke-linecap="round" stroke-miterlimit="10" d="M104.9,188.9
			c1.1,1.1,2.5,1.9,4.1,2.3s3.3,0.3,4.7-0.2"/>
	
		<path fill="#DCE1E5" d="M189.6,43.5l-3.7-1.1c-0.1,0-0.1-0.1-0.1-0.2l1-3.1c0-0.1,0.1-0.1,0.2-0.1l3.7,1.1c0.1,0,0.1,0.1,0.1,0.2
			l-1,3.1C189.7,43.5,189.6,43.6,189.6,43.5z"/>
		<path fill="#DCE1E5" d="M175.9,39.3l-3.5-1.1c-0.1,0-0.2-0.2-0.1-0.3l2-6.4c0-0.1,0.2-0.2,0.3-0.1l3.5,1.1c0.1,0,0.2,0.2,0.1,0.3
			l-2,6.4C176.1,39.3,176,39.4,175.9,39.3z"/>
		<path fill="none" stroke="#67717C" stroke-width="0.5" stroke-linecap="round" stroke-miterlimit="10" d="M174.3,37.3l-3.5-1.1
			c-0.1,0-0.2-0.2-0.1-0.3l2-6.4c0-0.1,0.2-0.2,0.3-0.1l3.5,1.1c0.1,0,0.2,0.2,0.1,0.3l-2,6.4C174.6,37.3,174.4,37.3,174.3,37.3z"/>
		<path fill="#DCE1E5" d="M187.2,28.3l-1.9-0.6l-3.5,11.5c-0.1,0.2-0.3,0.3-0.4,0.2l-1.5-0.4l-0.3,1.1c-0.1,0.2,0,0.4,0.2,0.4l3.3,1
			c0.2,0.1,0.4,0,0.4-0.2l3.9-12.6C187.5,28.5,187.4,28.3,187.2,28.3z"/>
		
			<line fill="none" stroke="#67717C" stroke-width="0.5" stroke-linecap="round" stroke-miterlimit="10" x1="179.9" y1="31.3" x2="180" y2="30.9"/>
		<path fill="none" stroke="#67717C" stroke-width="0.5" stroke-linecap="round" stroke-miterlimit="10" d="M180.8,28.1l0.8-2.7
			c0.1-0.2,0.3-0.3,0.4-0.2l3.3,1c0.2,0.1,0.3,0.3,0.2,0.4l-3.9,12.6c-0.1,0.2-0.3,0.3-0.4,0.2l-3.3-1c-0.2-0.1-0.3-0.3-0.2-0.4
			l1.6-5.1"/>
		<path fill="none" stroke="#67717C" stroke-width="0.5" stroke-linecap="round" stroke-miterlimit="10" d="M188.7,41.7l-3.7-1.1
			c-0.1,0-0.1-0.1-0.1-0.2l1-3.1c0-0.1,0.1-0.1,0.2-0.1l3.7,1.1c0.1,0,0.1,0.1,0.1,0.2l-1,3.1C188.8,41.7,188.8,41.7,188.7,41.7z"/>
		
			<line fill="none" stroke="#E84B54" stroke-width="0.5" stroke-linecap="round" stroke-miterlimit="10" x1="182.8" y1="28.9" x2="180.7" y2="35.5"/>
	
		<circle fill="#DCE1E5" cx="104.6" cy="29.6" r="5.6"/>
		<path fill="none" stroke="#67717C" stroke-width="0.5" stroke-linecap="round" stroke-miterlimit="10" d="M101.5,23.3
			c0.6-0.2,1.2-0.3,1.9-0.3c3.1,0,5.6,2.5,5.6,5.6s-2.5,5.6-5.6,5.6c-2.8,0-5.1-2-5.5-4.7c0-0.3-0.1-0.6-0.1-0.9
			c0-0.3,0-0.5,0.1-0.8c0.1-0.5,0.2-0.9,0.4-1.4"/>
		<path fill="none" stroke="#67717C" stroke-width="0.5" stroke-linecap="round" stroke-miterlimit="10" d="M100.4,23.9
			c0,0,0.1-0.1,0.1-0.1"/>
		<path fill="none" stroke="#67717C" stroke-width="0.5" stroke-linecap="round" stroke-miterlimit="10" d="M99,25.2
			c0.2-0.3,0.4-0.5,0.7-0.8"/>
		<path fill="none" stroke="#E84B54" stroke-width="0.5" stroke-linecap="round" stroke-miterlimit="10" d="M100.9,26.2l2.4,2.4
			c0.1,0.1,0.2,0.1,0.2,0l1.8-1.8"/>
	
			<path fill="none" stroke="#DCE1E5" stroke-width="1.5" stroke-linecap="round" stroke-miterlimit="10" d="M187.2,132.6
				c-0.9,1.2-2.2,2.7-3.5,2.9c-2,0.3-3.8-1.1-4.1-3.1s1.1-3.8,3.1-4.1s5.3,3,5.3,3"/>
			<path fill="none" stroke="#DCE1E5" stroke-width="1.5" stroke-linecap="round" stroke-miterlimit="10" d="M188.1,131.3
				c0,0,3.3,3.2,5.3,3s3.4-2.1,3.1-4.1s-2.1-3.4-4.1-3.1c-0.6,0.1-1.2,0.5-1.7,1"/>
		
			<path fill="none" stroke="#67717C" stroke-width="0.5" stroke-linecap="round" stroke-miterlimit="10" d="M185.9,131
				c-0.9,1.2-2.2,2.7-3.5,2.9c-2,0.3-3.8-1.1-4.1-3.1s1.1-3.8,3.1-4.1s5.3,3,5.3,3"/>
			<path fill="none" stroke="#67717C" stroke-width="0.5" stroke-linecap="round" stroke-miterlimit="10" d="M187.9,128
				c-0.1,0.1-0.1,0.2-0.2,0.3"/>
			<path fill="none" stroke="#67717C" stroke-width="0.5" stroke-linecap="round" stroke-miterlimit="10" d="M186.8,129.7
				c0,0,3.3,3.2,5.3,3s3.4-2.1,3.1-4.1s-2.1-3.4-4.1-3.1c-0.8,0.1-1.6,0.8-2.3,1.6"/>
		
		<path fill="none" stroke="#E84B54" stroke-width="0.5" stroke-linecap="round" stroke-miterlimit="10" d="M182.8,132.2
			c-1.1,0.1-2.1-0.4-2.6-1.4"/>
	
		<path fill="#DCE1E5" d="M37.6,50.9l-7.2-3.6c-0.4-0.2-0.6-0.7-0.4-1.1l3.8-7.4l0.6-1.1l0.5-0.9l1-2c0.2-0.4,0.7-0.6,1.1-0.4
			l7.2,3.6c0.4,0.2,0.6,0.7,0.4,1.1l-5.8,11.4C38.4,51,37.9,51.1,37.6,50.9z"/>
		
			<line fill="none" stroke="#67717C" stroke-width="0.5" stroke-linecap="round" stroke-miterlimit="10" x1="32.6" y1="37.4" x2="33.3" y2="36"/>
		
			<line fill="none" stroke="#67717C" stroke-width="0.5" stroke-linecap="round" stroke-miterlimit="10" x1="32" y1="38.4" x2="32.1" y2="38.4"/>
		<path fill="none" stroke="#67717C" stroke-width="0.5" stroke-linecap="round" stroke-miterlimit="10" d="M33.9,34.9l1.3-2.6
			c0.2-0.4,0.7-0.6,1.1-0.4l7.2,3.6c0.4,0.2,0.6,0.7,0.4,1.1l-5.8,11.4c-0.2,0.4-0.7,0.6-1.1,0.4l-7.2-3.6c-0.4-0.2-0.6-0.7-0.4-1.1
			l2.1-4.1"/>
		<circle fill="#E84B54" cx="34.4" cy="44.5" r="0.8"/>
	
		<path fill="#DCE1E5" d="M116.9,97.9l-1.4-1.4c-0.2-0.2-0.2-0.6,0-0.8l6.9-6.9c0.2-0.2,0.6-0.2,0.8,0l6.9,6.9
			c0.2,0.2,0.2,0.6,0,0.8l-6.9,6.9c-0.2,0.2-0.6,0.2-0.8,0L119,100"/>
		<path fill="#DCE1E5" d="M131.1,112l-1.4-1.4c-0.2-0.2-0.2-0.6,0-0.8l6.9-6.9c0.2-0.2,0.6-0.2,0.8,0l6.9,6.9c0.2,0.2,0.2,0.6,0,0.8
			l-6.9,6.9c-0.2,0.2-0.6,0.2-0.8,0l-3.4-3.4"/>
		<path fill="#DCE1E5" d="M116.9,126.1l-1.4-1.4c-0.2-0.2-0.2-0.6,0-0.8l6.9-6.9c0.2-0.2,0.6-0.2,0.8,0l6.9,6.9
			c0.2,0.2,0.2,0.6,0,0.8l-6.9,6.9c-0.2,0.2-0.6,0.2-0.8,0l-3.4-3.4"/>
		<path fill="#DCE1E5" d="M103.8,139.3l-1.4-1.4c-0.2-0.2-0.2-0.6,0-0.8l6.9-6.9c0.2-0.2,0.6-0.2,0.8,0l6.9,6.9
			c0.2,0.2,0.2,0.6,0,0.8l-6.9,6.9c-0.2,0.2-0.6,0.2-0.8,0l-3.4-3.4"/>
		<path fill="#DCE1E5" d="M90.2,125.6l-1.4-1.4c-0.2-0.2-0.2-0.6,0-0.8l6.9-6.9c0.2-0.2,0.6-0.2,0.8,0l6.9,6.9
			c0.2,0.2,0.2,0.6,0,0.8l-6.9,6.9c-0.2,0.2-0.6,0.2-0.8,0l-3.4-3.4"/>
		<path fill="#DCE1E5" d="M76.1,111.5l-1.4-1.4c-0.2-0.2-0.2-0.6,0-0.8l6.9-6.9c0.2-0.2,0.6-0.2,0.8,0l6.9,6.9
			c0.2,0.2,0.2,0.6,0,0.8l-6.9,6.9c-0.2,0.2-0.6,0.2-0.8,0l-3.4-3.4"/>
		<path fill="#DCE1E5" d="M89.2,98.4L87.8,97c-0.2-0.2-0.2-0.6,0-0.8l6.9-6.9c0.2-0.2,0.6-0.2,0.8,0l6.9,6.9c0.2,0.2,0.2,0.6,0,0.8
			l-6.9,6.9c-0.2,0.2-0.6,0.2-0.8,0l-3.4-3.4"/>
		<path fill="#DCE1E5" d="M116.2,109.6l-6.9-6.9c-0.2-0.2-0.6-0.2-0.8,0l-1,1l5.8,5.8c0.2,0.2,0.2,0.6,0,0.8l-5.8,5.8l1,1
			c0.2,0.2,0.6,0.2,0.8,0l6.9-6.9C116.5,110.2,116.5,109.8,116.2,109.6z"/>
		<path fill="#DCE1E5" d="M103.3,84.3l-1.4-1.4c-0.2-0.2-0.2-0.6,0-0.8l6.9-6.9c0.2-0.2,0.6-0.2,0.8,0l6.9,6.9
			c0.2,0.2,0.2,0.6,0,0.8l-6.9,6.9c-0.2,0.2-0.6,0.2-0.8,0l-3.4-3.4"/>
		<path fill="none" stroke="#67717C" stroke-width="0.5" stroke-linecap="round" stroke-miterlimit="10" d="M100.2,84.3L98.9,83
			c-0.2-0.2-0.2-0.6,0-0.8l6.9-6.9c0.2-0.2,0.6-0.2,0.8,0l6.9,6.9c0.2,0.2,0.2,0.6,0,0.8l-6.9,6.9c-0.2,0.2-0.6,0.2-0.8,0l-3.4-3.4"
			/>
		<path fill="none" stroke="#67717C" stroke-width="0.5" stroke-linecap="round" stroke-miterlimit="10" d="M116,92.4l3.4-3.4
			c0.2-0.2,0.6-0.2,0.8,0l6.9,6.9c0.2,0.2,0.2,0.6,0,0.8l-6.9,6.9c-0.2,0.2-0.6,0.2-0.8,0l-6.9-6.9c-0.2-0.2-0.2-0.6,0-0.8l1.5-1.5"
			/>
		<path fill="none" stroke="#67717C" stroke-width="0.5" stroke-linecap="round" stroke-miterlimit="10" d="M130.3,114.4l-4-4
			c-0.2-0.2-0.2-0.6,0-0.8l6.9-6.9c0.2-0.2,0.6-0.2,0.8,0l6.9,6.9c0.2,0.2,0.2,0.6,0,0.8l-6.9,6.9c-0.2,0.2-0.6,0.2-0.8,0"/>
		<path fill="none" stroke="#67717C" stroke-width="0.5" stroke-linecap="round" stroke-miterlimit="10" d="M87.9,93.1L92,89
			c0.2-0.2,0.6-0.2,0.8,0l6.9,6.9c0.2,0.2,0.2,0.6,0,0.8l-6.9,6.9c-0.2,0.2-0.6,0.2-0.8,0l-6.9-6.9c-0.2-0.2-0.2-0.6,0-0.8"/>
		<path fill="none" stroke="#67717C" stroke-width="0.5" stroke-linecap="round" stroke-miterlimit="10" d="M119.4,116.5
			c0.2-0.2,0.6-0.2,0.8,0l6.9,6.9c0.2,0.2,0.2,0.6,0,0.8l-6.9,6.9c-0.2,0.2-0.6,0.2-0.8,0l-6.9-6.9c-0.2-0.2-0.2-0.6,0-0.8l4.6-4.6"
			/>
		<path fill="none" stroke="#67717C" stroke-width="0.5" stroke-linecap="round" stroke-miterlimit="10" d="M75.7,114.7l-4.2-4.2
			c-0.2-0.2-0.2-0.6,0-0.8l6.9-6.9c0.2-0.2,0.6-0.2,0.8,0l6.9,6.9c0.2,0.2,0.2,0.6,0,0.8l-6.9,6.9c-0.2,0.2-0.6,0.2-0.8,0"/>
		<path fill="none" stroke="#67717C" stroke-width="0.5" stroke-linecap="round" stroke-miterlimit="10" d="M87.7,120.8l4.3-4.3
			c0.2-0.2,0.6-0.2,0.8,0l6.9,6.9c0.2,0.2,0.2,0.6,0,0.8l-6.9,6.9c-0.2,0.2-0.6,0.2-0.8,0l-6.9-6.9c-0.2-0.2-0.2-0.6,0-0.8"/>
		<path fill="none" stroke="#67717C" stroke-width="0.5" stroke-linecap="round" stroke-miterlimit="10" d="M100.5,139.5l-1.6-1.6
			c-0.2-0.2-0.2-0.6,0-0.8l6.9-6.9c0.2-0.2,0.6-0.2,0.8,0l6.9,6.9c0.2,0.2,0.2,0.6,0,0.8l-6.9,6.9c-0.2,0.2-0.6,0.2-0.8,0l-2.2-2.2"
			/>
		
			<line fill="none" stroke="#67717C" stroke-width="0.5" stroke-linecap="round" stroke-miterlimit="10" x1="106.1" y1="117.4" x2="106.1" y2="130"/>
		
			<line fill="none" stroke="#67717C" stroke-width="0.5" stroke-linecap="round" stroke-miterlimit="10" x1="106.1" y1="98.5" x2="106.1" y2="102.6"/>
		
			<line fill="none" stroke="#67717C" stroke-width="0.5" stroke-linecap="round" stroke-miterlimit="10" x1="106.1" y1="95.6" x2="106.1" y2="96.3"/>
		
			<line fill="none" stroke="#67717C" stroke-width="0.5" stroke-linecap="round" stroke-miterlimit="10" x1="106.1" y1="90" x2="106.1" y2="93.1"/>
		
			<line fill="none" stroke="#67717C" stroke-width="0.5" stroke-linecap="round" stroke-miterlimit="10" x1="98.7" y1="110" x2="86.1" y2="110"/>
		
			<line fill="none" stroke="#67717C" stroke-width="0.5" stroke-linecap="round" stroke-miterlimit="10" x1="126.1" y1="110" x2="113.6" y2="110"/>
		
			<line fill="none" stroke="#E84B54" stroke-width="0.5" stroke-linecap="round" stroke-miterlimit="10" x1="102.3" y1="106.2" x2="96.2" y2="100.1"/>
		
			<line fill="none" stroke="#E84B54" stroke-width="0.5" stroke-linecap="round" stroke-miterlimit="10" x1="116" y1="119.9" x2="110" y2="113.8"/>
		
			<line fill="none" stroke="#E84B54" stroke-width="0.5" stroke-linecap="round" stroke-miterlimit="10" x1="110" y1="106.2" x2="116" y2="100.1"/>
		
			<line fill="none" stroke="#E84B54" stroke-width="0.5" stroke-linecap="round" stroke-miterlimit="10" x1="96.2" y1="119.9" x2="102.3" y2="113.8"/>
		<path fill="none" stroke="#E84B54" stroke-width="0.5" stroke-linecap="round" stroke-miterlimit="10" d="M105.8,117.3l-6.9-6.9
			c-0.2-0.2-0.2-0.5,0-0.7l6.9-6.9c0.2-0.2,0.5-0.2,0.7,0l6.9,6.9c0.2,0.2,0.2,0.5,0,0.7l-6.9,6.9
			C106.3,117.5,106,117.5,105.8,117.3z"/>
	
		<path fill="#DCE1E5" d="M158.1,64.9c1.4,1.4,2.6,2.6,4.4,3.5c1.4,0.7,3,1,4.6,0.9c3.2-0.1,6.2-2.1,7.3-5.2
			c1.4-3.7,0.1-7.7-2.7-10.4c-1.4-1.4-2.7-2.9-4.1-4.1c-0.5-0.4-1.1-0.8-1.8-0.6c-0.8,0.2-1.3,1-1.3,1.8c0,0.1-0.1,0.1-0.1,0.1
			c-0.6-0.5-1.4-0.7-2.1-0.3c-0.6,0.3-0.9,1-0.8,1.6c0,0.1-0.1,0.1-0.1,0.1c-0.6-0.4-1.3-0.7-1.9-0.4c-0.7,0.3-1.1,1-1,1.7
			c0,0.1-0.1,0.1-0.2,0.1c-0.7-0.7-1.4-1.5-2.1-2.2c-0.6-0.6-1.4-1.4-2.3-1.2c-0.8,0.2-1.5,1-1.4,1.8c0.1,0.7,0.6,1.3,1.1,1.8
			c1.5,1.6,3.1,3,4.6,4.5c0.6,0.6,1.2,1.2,1.8,1.8c0.5,0.5,1,0.9,1.5,1.4l0,0c0.2,0.2,0.2,0.5,0,0.6l0,0c-0.2,0.2-0.5,0.2-0.6,0l0,0
			l-1.3-1.3c-0.7-0.7-1.8-0.7-2.5,0v0c-0.7,0.7-0.7,1.8,0,2.5l0.9,0.9L158.1,64.9z"/>
		<path fill="none" stroke="#67717C" stroke-width="0.5" stroke-linecap="round" stroke-miterlimit="10" d="M159.2,67.4
			c0.2,0.1,0.5,0.3,0.8,0.4c1.4,0.7,3,1,4.6,0.9c3.2-0.1,6.2-2.1,7.3-5.2c1.4-3.7,0.1-7.7-2.7-10.4c-1.4-1.4-2.7-2.9-4.1-4.1
			c-0.5-0.4-1.1-0.8-1.8-0.6c-0.8,0.2-1.3,1-1.3,1.8c0,0.1-0.1,0.1-0.1,0.1c-0.6-0.5-1.4-0.7-2.1-0.3c-0.6,0.3-0.9,1-0.8,1.6
			c0,0.1-0.1,0.1-0.1,0.1c-0.6-0.4-1.3-0.7-1.9-0.4c-0.7,0.3-1.1,1-1,1.7c0,0.1-0.1,0.1-0.2,0.1c-0.7-0.7-1.4-1.5-2.1-2.2
			c-0.6-0.6-1.4-1.4-2.3-1.2c-0.8,0.2-1.5,1-1.4,1.8c0.1,0.7,0.6,1.3,1.1,1.8c1.5,1.6,3.1,3,4.6,4.5c0.6,0.6,1.2,1.2,1.8,1.8
			c0.5,0.5,1,0.9,1.5,1.4l0,0c0.2,0.2,0.2,0.5,0,0.6l0,0c-0.2,0.2-0.5,0.2-0.6,0l0,0l-1.3-1.3c-0.7-0.7-1.8-0.7-2.5,0h0
			c-0.7,0.7-0.7,1.8,0,2.5l0.9,0.9l0.3,0.3c0.5,0.5,1.1,1.1,1.6,1.6"/>
		<path fill="none" stroke="#67717C" stroke-width="0.5" stroke-linecap="round" stroke-miterlimit="10" d="M157.9,66.5
			c0.1,0.1,0.2,0.2,0.3,0.3"/>
		<path fill="none" stroke="#E84B54" stroke-width="0.5" stroke-linecap="round" stroke-miterlimit="10" d="M148.3,53.3
			c-1.4-1.4-1.4-3.7,0-5.1s3.7-1.4,5.1,0"/>
		<path fill="none" stroke="#E84B54" stroke-width="0.5" stroke-linecap="round" stroke-miterlimit="10" d="M146.7,54.8
			c-2.3-2.3-2.3-5.9,0-8.2c2.3-2.3,5.9-2.3,8.2,0"/>
	
		<path fill="#DCE1E5" d="M62.3,173.5c-0.2-0.2-0.2-0.5-0.1-0.7c0,0,0-0.1,0.1-0.1c2-4.1,1.6-9.1-3.3-11.6c-3.8-1.9-6.3-0.7-8.6,1.1
			c-0.3,0.2-0.7,0.1-0.8-0.2c-0.4-0.6-0.9-1.1-1.6-1.5c-2-1-4.5-0.2-5.5,1.8c0,0.1-0.1,0.1-0.1,0.2c-0.1,0.2-0.4,0.4-0.7,0.3
			c-2.8-0.7-5.9,0.7-7.3,3.4c-1.6,3.2-0.3,7.1,2.8,8.7l5.6,2.8c0-0.1,0-0.2,0-0.3l0,0c0.1-0.2,0.2-0.4,0.4-0.5l0.4-0.2
			c0.4-0.2,0.9-0.1,1.1,0.3l0.2,0.3c0.2,0,0.4-0.1,0.7-0.1l0.1-0.4c0.1-0.4,0.6-0.7,1-0.6l0.4,0.1c0.4,0.1,0.7,0.6,0.6,1l-0.1,0.4
			c0.2,0.1,0.4,0.3,0.5,0.4l0.3-0.2c0.4-0.2,0.9-0.1,1.1,0.3l0.2,0.4c0.2,0.4,0.1,0.9-0.3,1.1l-0.3,0.2c0,0.2,0.1,0.4,0.1,0.7
			l0.4,0.1c0.3,0.1,0.5,0.3,0.6,0.6l4.9,2.5c3.2,1.6,7.1,0.3,8.7-2.9C65,178.6,64.4,175.5,62.3,173.5z M49,171.1
			c-0.2,0.4-0.7,0.6-1.1,0.4l-0.3-0.2c-0.2,0.2-0.3,0.3-0.5,0.4l0.1,0.4c0.1,0.4-0.1,0.9-0.5,1l-0.4,0.1c-0.2,0.1-0.4,0.1-0.6,0
			s-0.3-0.3-0.4-0.5l-0.1-0.4c-0.2,0-0.5,0-0.7,0l-0.2,0.3c-0.2,0.4-0.7,0.6-1.1,0.4l-0.4-0.2c-0.4-0.2-0.6-0.7-0.4-1.1l0.2-0.3
			c-0.2-0.2-0.3-0.3-0.4-0.5l-0.4,0.1c-0.2,0.1-0.4,0.1-0.6,0l0,0c-0.2-0.1-0.3-0.3-0.4-0.5l-0.1-0.4c-0.1-0.4,0.1-0.9,0.5-1
			l0.4-0.1c0-0.2,0-0.5,0-0.7l-0.3-0.2c-0.4-0.2-0.6-0.7-0.4-1.1l0.2-0.4c0.2-0.4,0.7-0.6,1.1-0.4l0.3,0.2c0.2-0.2,0.3-0.3,0.5-0.4
			l-0.1-0.4c-0.1-0.4,0.1-0.9,0.5-1l0.4-0.1c0.4-0.1,0.9,0.1,1,0.5l0.1,0.4c0.2,0,0.5,0,0.7,0l0.2-0.3c0.2-0.4,0.7-0.6,1.1-0.4
			l0.4,0.2c0.4,0.2,0.6,0.7,0.4,1.1l-0.2,0.3c0.2,0.2,0.3,0.3,0.4,0.5l0.4-0.1c0.2-0.1,0.4-0.1,0.6,0c0.2,0.1,0.3,0.3,0.4,0.5
			l0.1,0.4c0.1,0.4-0.1,0.9-0.5,1l-0.4,0.1c0,0.2,0,0.5,0,0.7l0.3,0.2c0.4,0.2,0.6,0.7,0.4,1.1L49,171.1z"/>
		
			<path id="XMLID_26_" fill="none" stroke="#67717C" stroke-width="0.5" stroke-linecap="round" stroke-miterlimit="10" d="
				M41.7,182.1c-0.2,0.1-0.3,0.3-0.4,0.5s0,0.4,0.1,0.6l0.2,0.4c0.2,0.4,0.7,0.5,1.1,0.3l0.3-0.2c0.2,0.2,0.3,0.3,0.5,0.4l-0.1,0.4
				c-0.1,0.4,0.1,0.9,0.6,1l0.4,0.1c0.4,0.1,0.9-0.1,1-0.6l0.1-0.4c0.2,0,0.5,0,0.7-0.1l0.2,0.3c0.2,0.4,0.7,0.5,1.1,0.3L48,185
				c0.2-0.1,0.3-0.3,0.4-0.5l0,0c0.1-0.2,0-0.4-0.1-0.6l-0.2-0.3c0.2-0.2,0.3-0.3,0.4-0.5l0.4,0.1c0.4,0.1,0.9-0.1,1-0.6"/>
			<path id="XMLID_24_" fill="none" stroke="#67717C" stroke-width="0.5" stroke-linecap="round" stroke-miterlimit="10" d="
				M49.1,181c0-0.2,0-0.5-0.1-0.7l0.3-0.2c0.4-0.2,0.5-0.7,0.3-1.1l-0.2-0.4c-0.2-0.4-0.7-0.5-1.1-0.3l-0.3,0.2
				c-0.2-0.2-0.3-0.3-0.5-0.4l0.1-0.4c0.1-0.4-0.1-0.9-0.6-1l-0.4-0.1c-0.4-0.1-0.9,0.1-1,0.6l-0.1,0.4c-0.2,0-0.5,0-0.7,0.1
				l-0.2-0.3c-0.2-0.4-0.7-0.5-1.1-0.3l-0.4,0.2c-0.2,0.1-0.3,0.3-0.4,0.5l0,0c-0.1,0.2,0,0.4,0.1,0.6l0.2,0.3
				c-0.2,0.2-0.3,0.3-0.4,0.5l-0.4-0.1c-0.4-0.1-0.9,0.1-1,0.6l-0.1,0.4c-0.1,0.4,0.1,0.9,0.6,1"/>
			
				<circle id="XMLID_23_" fill="none" stroke="#E84B54" stroke-width="0.5" stroke-linecap="round" stroke-miterlimit="10" cx="45.6" cy="181.1" r="1.4"/>
		
			<path id="XMLID_22_" fill="none" stroke="#67717C" stroke-width="0.5" stroke-linecap="round" stroke-miterlimit="10" d="
				M45.2,172.8c0.1,0.2,0.2,0.4,0.4,0.5c0.2,0.1,0.4,0.1,0.6,0l0.4-0.1c0.4-0.1,0.7-0.6,0.5-1l-0.1-0.4c0.2-0.1,0.4-0.3,0.5-0.4
				l0.3,0.2c0.4,0.2,0.9,0,1.1-0.4l0.2-0.4c0.2-0.4,0-0.9-0.4-1.1l-0.3-0.2c0-0.2,0.1-0.5,0-0.7l0.4-0.1c0.4-0.1,0.7-0.6,0.5-1
				l-0.1-0.4c-0.1-0.2-0.2-0.4-0.4-0.5l0,0c-0.2-0.1-0.4-0.1-0.6,0l-0.4,0.1c-0.1-0.2-0.3-0.4-0.4-0.5l0.2-0.3
				c0.2-0.4,0-0.9-0.4-1.1"/>
			<path id="XMLID_21_" fill="none" stroke="#67717C" stroke-width="0.5" stroke-linecap="round" stroke-miterlimit="10" d="
				M45.6,165.3c-0.2,0-0.5-0.1-0.7,0l-0.1-0.4c-0.1-0.4-0.6-0.7-1-0.5l-0.4,0.1c-0.4,0.1-0.7,0.6-0.5,1l0.1,0.4
				c-0.2,0.1-0.4,0.3-0.5,0.4l-0.3-0.2c-0.4-0.2-0.9,0-1.1,0.4l-0.2,0.4c-0.2,0.4,0,0.9,0.4,1.1l0.3,0.2c0,0.2-0.1,0.5,0,0.7
				l-0.4,0.1c-0.4,0.1-0.7,0.6-0.5,1l0.1,0.4c0.1,0.2,0.2,0.4,0.4,0.5l0,0c0.2,0.1,0.4,0.1,0.6,0l0.4-0.1c0.1,0.2,0.3,0.4,0.4,0.5
				l-0.2,0.3c-0.2,0.4,0,0.9,0.4,1.1l0.4,0.2c0.4,0.2,0.9,0,1.1-0.4"/>
			
				<circle id="XMLID_20_" fill="none" stroke="#E84B54" stroke-width="0.5" stroke-linecap="round" stroke-miterlimit="10" cx="45" cy="168.8" r="1.4"/>
		
			<path id="MobileMe_28_" fill="none" stroke="#67717C" stroke-width="0.5" stroke-linecap="round" stroke-miterlimit="10" d="
				M55.8,157.7c0.3,0.1,0.6,0.2,0.9,0.4c5,2.5,5.4,7.5,3.3,11.6c0,0,0,0.1-0.1,0.1c-0.1,0.2-0.1,0.5,0.1,0.7
				c2.1,1.9,2.8,5.1,1.4,7.7c-1.6,3.2-5.5,4.5-8.7,2.9"/>
			<path id="MobileMe_27_" fill="none" stroke="#67717C" stroke-width="0.5" stroke-linecap="round" stroke-miterlimit="10" d="
				M54.4,157.3c0.1,0,0.1,0,0.2,0"/>
			<path id="MobileMe_26_" fill="none" stroke="#67717C" stroke-width="0.5" stroke-linecap="round" stroke-miterlimit="10" d="
				M51.7,157.3c0.3-0.1,0.5-0.1,0.8-0.1c0,0,0.4,0,0.6,0c0.1,0,0.1,0,0.2,0"/>
			<path id="MobileMe_25_" fill="none" stroke="#67717C" stroke-width="0.5" stroke-linecap="round" stroke-miterlimit="10" d="
				M49.8,158.1c-0.6,0.3-1.2,0.8-1.8,1.2c-0.3,0.2-0.7,0.1-0.8-0.2c-0.4-0.6-0.9-1.1-1.6-1.5c-2-1-4.5-0.2-5.5,1.8
				c0,0.1-0.1,0.1-0.1,0.2c-0.1,0.2-0.4,0.4-0.7,0.3c-2.8-0.7-5.9,0.7-7.3,3.4c-1.6,3.2-0.3,7.1,2.8,8.7l4.8,2.4"/>
		
		<path fill="#DCE1E5" d="M149.4,182l-1-0.6c-0.3-0.1-0.6-0.2-0.9-0.1l-1.3,0.4l-0.2-0.9c-0.1-0.3-0.3-0.6-0.6-0.8l-1.9-1.1
			l-0.1-0.4c-0.1-0.5-0.5-0.9-1-1.1l-5.4-1.9c-0.3-0.1-0.6-0.1-0.8,0l-0.6,0.2c-0.3,0.1-0.6,0.3-0.7,0.6l-0.4,0.8l-0.3-0.1l-1.2-0.7
			c-0.4-0.2-0.9-0.3-1.3-0.1l-1.5,0.4c-0.3,0.1-0.6,0.2-0.8,0.4l-5.1,3.5c-0.3,0.2-0.5,0.5-0.7,0.8l-0.8,1.4l-0.6,0.2
			c-0.3,0.1-0.5,0.2-0.6,0.5l-1.3,2.3l-0.2,0.1c-0.6,0.2-1,0.6-1.2,1.1l-1.5,4.2c-0.1,0.4-0.2,0.8,0,1.2l0.3,0.9
			c0.1,0.3,0.2,0.5,0.5,0.6l0.8,0.5c0.3,0.1,0.6,0.2,0.9,0.1l0.1,0l0.4,1.3c0.1,0.3,0.3,0.5,0.5,0.7l1.6,0.9
			c0.6,0.3,1.3,0.4,1.9,0.2l1.6-0.5l0.7-0.2c0,0,0.5-0.1,0.6,0.2c0.1,0.3,0.2,1,0.2,1c0.2,0.7,0.9,1,1.5,0.9l6.3-1.8
			c0.6-0.2,1.2-0.6,1.5-1.2l0.6-1c0.2-0.3,0.2-0.7,0.1-1.1l-0.4-1.4c-0.1-0.2-0.2-0.4-0.4-0.5l-0.9-0.5c0,0-0.4-0.5,0.4-0.6l2.2-0.3
			c1.2-0.2,2.4,0.6,2.7,1.8l0.5,1.6c0.1,0.4,0.4,0.7,0.7,0.9l1.1,0.6c0.4,0.2,0.9,0.3,1.3,0.1l3-0.9c0.3-0.1,0.6-0.3,0.8-0.6
			l0.7-1.3c0.1-0.3,0.2-0.6,0.1-0.9c-0.7-1.4,0-1.7,0-1.7l0.4-0.1c0.4-0.1,0.7-0.4,0.9-0.8l0.6-1.1c0.2-0.4,0.3-1,0.2-1.5l-1-3.4
			C150.1,182.6,149.8,182.2,149.4,182z M125.5,190c-0.6-1-0.3-2.2,0.7-2.8c1-0.6,2.2-0.3,2.8,0.7c0.6,1,0.3,2.2-0.7,2.8
			C127.3,191.3,126,191,125.5,190z M132.1,195.4c-1,0.6-2.3,0.3-2.9-0.7c-0.6-1-0.3-2.3,0.7-2.9c1-0.6,2.3-0.3,2.9,0.7
			C133.5,193.5,133.1,194.8,132.1,195.4z M132.7,187.3c-1,0.6-2.3,0.3-2.9-0.7c-0.6-1-0.3-2.3,0.7-2.9c1-0.6,2.3-0.3,2.9,0.7
			C134.1,185.4,133.7,186.7,132.7,187.3z M140.4,184.8c-1,0.6-2.2,0.3-2.8-0.7c-0.6-1-0.3-2.2,0.7-2.8c1-0.6,2.2-0.3,2.8,0.7
			C141.7,182.9,141.4,184.2,140.4,184.8z"/>
		
				<path fill="none" stroke="#67717C" stroke-width="0.5" stroke-linecap="round" stroke-miterlimit="10" d="M125.7,197.2
					c0.2,0.7,0.9,1,1.5,0.9l6.3-1.8c0.6-0.2,1.2-0.6,1.5-1.2l0.6-1c0.2-0.3,0.2-0.7,0.1-1.1l-0.4-1.4c-0.1-0.2-0.2-0.4-0.4-0.5
					l-1.8-1"/>
				<path fill="none" stroke="#67717C" stroke-width="0.5" stroke-linecap="round" stroke-miterlimit="10" d="M129.7,193.9l-6.1,1.7
					l-1.6,0.5c-0.6,0.2-1.3,0.1-1.9-0.2l-1.6-0.9c-0.3-0.1-0.5-0.4-0.5-0.7"/>
				<path fill="none" stroke="#67717C" stroke-width="0.5" stroke-linecap="round" stroke-miterlimit="10" d="M123.7,191.3l-6.2,1.8
					c-0.3,0.1-0.6,0-0.9-0.1l-0.8-0.5c-0.2-0.1-0.4-0.3-0.5-0.6l-0.3-0.9c-0.1-0.4-0.1-0.8,0-1.2l1.5-4.2c0.2-0.5,0.6-1,1.2-1.1
					l0.8-0.2c0.2-0.1,0.4,0,0.6,0.1l6.2,3.4"/>
				<path fill="none" stroke="#67717C" stroke-width="0.5" stroke-linecap="round" stroke-miterlimit="10" d="M118.1,184.4l1.3-2.3
					c0.1-0.2,0.3-0.4,0.6-0.5l1.1-0.3c0.3-0.1,0.5,0,0.8,0.1l4.5,2.5"/>
				<path fill="none" stroke="#67717C" stroke-width="0.5" stroke-linecap="round" stroke-miterlimit="10" d="M127.2,175.8
					c0.2-0.2,0.5-0.3,0.8-0.4l1.5-0.4c0.4-0.1,0.9-0.1,1.3,0.1l1.8,1c0.4,0.2,0.7,0.6,0.8,1l5.8,20.1"/>
				<path fill="none" stroke="#67717C" stroke-width="0.5" stroke-linecap="round" stroke-miterlimit="10" d="M124.4,177.7"/>
				
					<line fill="none" stroke="#67717C" stroke-width="0.5" stroke-linecap="round" stroke-miterlimit="10" x1="124.2" y1="177.7" x2="124.2" y2="177.7"/>
				<path fill="none" stroke="#67717C" stroke-width="0.5" stroke-linecap="round" stroke-miterlimit="10" d="M121.3,180.1
					c0.2-0.3,0.4-0.6,0.7-0.8l0.9-0.6"/>
				<path fill="none" stroke="#67717C" stroke-width="0.5" stroke-linecap="round" stroke-miterlimit="10" d="M125.9,178.4l3.7,2.1
					c0.4,0.2,0.7,0.6,0.8,1l0.8,2.9"/>
				<path fill="none" stroke="#67717C" stroke-width="0.5" stroke-linecap="round" stroke-miterlimit="10" d="M132.2,175.9l0.4-0.8
					c0.2-0.3,0.4-0.5,0.7-0.6l0.6-0.2c0.3-0.1,0.6-0.1,0.8,0l5.4,1.9c0.5,0.2,0.8,0.6,1,1.1l0.2,0.7c0.1,0.4,0.1,0.8-0.1,1.1l-1,1.7
					"/>
				<path fill="none" stroke="#67717C" stroke-width="0.5" stroke-linecap="round" stroke-miterlimit="10" d="M142.6,178.5l0.7,0.4
					c0.3,0.2,0.5,0.5,0.6,0.8l0.3,0.9c0.1,0.4,0.1,0.8-0.1,1.1l-1.8,3.3"/>
				<path fill="none" stroke="#67717C" stroke-width="0.5" stroke-linecap="round" stroke-miterlimit="10" d="M145.4,180.3
					c0.3-0.1,0.6,0,0.9,0.1l1,0.6c0.4,0.2,0.7,0.6,0.8,1l1,3.4c0.1,0.5,0.1,1-0.2,1.5l-0.6,1.1c-0.2,0.4-0.5,0.6-0.9,0.8l-0.9,0.3
					c-0.4,0.1-0.8,0.1-1.2-0.1l-0.5-0.3c-0.2-0.1-0.3-0.4-0.2-0.6l0.8-1.4"/>
				<path fill="none" stroke="#67717C" stroke-width="0.5" stroke-linecap="round" stroke-miterlimit="10" d="M146.5,188.9l0.5,1.7
					c0.1,0.3,0,0.5-0.1,0.8l-0.8,1.4c-0.1,0.2-0.3,0.4-0.6,0.5l-3.4,1c-0.3,0.1-0.5,0-0.8-0.1"/>
				<path fill="none" stroke="#67717C" stroke-width="0.5" stroke-linecap="round" stroke-miterlimit="10" d="M130.5,185
					c0.1-0.3,0.4-0.6,0.8-0.7c0.7-0.2,1.3,0.2,1.5,0.8c0.2,0.7-0.2,1.3-0.8,1.5c-0.4,0.1-0.9,0-1.2-0.3"/>
				<path fill="none" stroke="#67717C" stroke-width="0.5" stroke-linecap="round" stroke-miterlimit="10" d="M132.2,193.2
					c0.2,0.7-0.2,1.3-0.8,1.5c-0.7,0.2-1.3-0.2-1.5-0.8c-0.2-0.7,0.2-1.3,0.8-1.5c0.4-0.1,0.7,0,1,0.2"/>
			
			<circle fill="#E84B54" cx="127.2" cy="188.9" r="0.7"/>
			<circle fill="#E84B54" cx="139.5" cy="198.8" r="0.7"/>
			<circle fill="#E84B54" cx="139.3" cy="183" r="0.7"/>
		
		<path fill="#DCE1E5" d="M27.3,105.4l1.2-4.6c0.2-0.6,0-1.2-0.4-1.7l-3.4-3.4c-0.4-0.4-1.1-0.6-1.7-0.4l-4.6,1.2
			c-0.6,0.2-1.1,0.6-1.2,1.2l-1.2,4.6c-0.2,0.6,0,1.2,0.4,1.7l3.4,3.4c0.4,0.4,1.1,0.6,1.7,0.4l4.6-1.2
			C26.7,106.4,27.2,106,27.3,105.4z"/>
		<path fill="#DCE1E5" d="M41.4,109.3l1.2-4.6c0.2-0.6,0-1.2-0.4-1.7l-3.4-3.4c-0.4-0.4-1.1-0.6-1.7-0.4l-4.6,1.2
			c-0.6,0.2-1.1,0.6-1.2,1.2l-1.2,4.6c-0.2,0.6,0,1.2,0.4,1.7l3.4,3.4c0.4,0.4,1.1,0.6,1.7,0.4l4.6-1.2
			C40.8,110.3,41.3,109.9,41.4,109.3z"/>
		<path fill="#DCE1E5" d="M31.6,98.1l5.3-1.4c0.4-0.1,0.7-0.4,0.8-0.8l0.3-1l-4.6,1.2c-0.4,0.1-0.8,0-1.1-0.3l-3.9-3.9
			c-0.3-0.3-0.4-0.7-0.3-1.1l1.2-4.3l-0.8,0.2c-0.4,0.1-0.7,0.4-0.8,0.8l-1.4,5.3c-0.1,0.4,0,0.8,0.3,1.1l3.9,3.9
			C30.9,98.1,31.3,98.2,31.6,98.1z"/>
		<path fill="none" stroke="#67717C" stroke-width="0.5" stroke-linecap="round" stroke-miterlimit="10" d="M39.6,93.5l1.2-4.6
			c0.2-0.6,0-1.2-0.4-1.7L37,83.8c-0.4-0.4-1.1-0.6-1.7-0.4l-4.6,1.2c-0.6,0.2-1.1,0.6-1.2,1.2l-1.2,4.6c-0.2,0.6,0,1.2,0.4,1.7
			l3.4,3.4c0.4,0.4,1.1,0.6,1.7,0.4l4.6-1.2C39,94.6,39.5,94.1,39.6,93.5z"/>
		<path fill="none" stroke="#E84B54" stroke-width="0.5" stroke-linecap="round" stroke-miterlimit="10" d="M30.3,90.4
			c-0.1,0.3,0,0.5,0.2,0.7l2.6,2.6c0.2,0.2,0.5,0.3,0.7,0.2l3.5-1"/>
		<path fill="none" stroke="#67717C" stroke-width="0.5" stroke-linecap="round" stroke-miterlimit="10" d="M22.1,94.3l-1.8,0.5
			c-0.4,0.1-0.7,0.4-0.8,0.8l-1.4,5.3c-0.1,0.4,0,0.8,0.3,1.1l3.9,3.9c0.3,0.3,0.7,0.4,1.1,0.3l5.3-1.4c0.4-0.1,0.7-0.4,0.8-0.8
			l1.4-5.3c0.1-0.4,0-0.8-0.3-1.1l-3.9-3.9c-0.3-0.3-0.7-0.4-1.1-0.3"/>
		
			<line fill="none" stroke="#67717C" stroke-width="0.5" stroke-linecap="round" stroke-miterlimit="10" x1="23.7" y1="93.9" x2="23.5" y2="93.9"/>
		<path fill="none" stroke="#67717C" stroke-width="0.5" stroke-linecap="round" stroke-miterlimit="10" d="M41.8,98.8l-1.4-1.4
			c-0.3-0.3-0.7-0.4-1.1-0.3L34,98.5c-0.4,0.1-0.7,0.4-0.8,0.8l-1.4,5.3c-0.1,0.4,0,0.8,0.3,1.1l3.9,3.9c0.3,0.3,0.7,0.4,1.1,0.3
			l5.3-1.4c0.4-0.1,0.7-0.4,0.8-0.8l1.4-5.3c0.1-0.4,0-0.8-0.3-1.1"/>
		
			<line fill="none" stroke="#67717C" stroke-width="0.5" stroke-linecap="round" stroke-miterlimit="10" x1="42.9" y1="99.9" x2="42.8" y2="99.7"/>
		
			<line fill="none" stroke="#E84B54" stroke-width="0.5" stroke-linecap="round" stroke-miterlimit="10" x1="28.9" y1="98" x2="26.5" y2="95.5"/>
	
		<path fill="#DCE1E5" d="M90.3,27.2l2,10.7l-22.1,4.2l0.1,0.7l0.7,3.8c0.4,1.7,2.1,2.8,3.8,2.5l18.6-3.5c1.8-0.3,3-2.1,2.6-3.9
			L94,29.9C93.6,28.2,92,27,90.3,27.2z"/>
		
			<line fill="none" stroke="#67717C" stroke-width="0.5" stroke-linecap="round" stroke-miterlimit="10" x1="65.8" y1="35.3" x2="65.7" y2="34.8"/>
		<path fill="none" stroke="#67717C" stroke-width="0.5" stroke-linecap="round" stroke-miterlimit="10" d="M65.1,31.6
			c-0.3-1.8,0.9-3.5,2.6-3.9l18.6-3.5c1.8-0.3,3.5,0.9,3.9,2.6l2.2,11.9c0.3,1.8-0.9,3.5-2.6,3.9l-18.6,3.5
			c-1.8,0.3-3.5-0.9-3.9-2.6l-1-5.6"/>
		<path fill="none" stroke="#67717C" stroke-width="0.5" stroke-linecap="round" stroke-miterlimit="10" d="M92.3,38.1
			c0,0-3.5,0.7-11.2,2.1s-13.9,2.6-13.9,2.6s6.2-1.2,13.9-2.6S92.3,38.1,92.3,38.1z"/>
		<path fill="none" stroke="#E84B54" stroke-width="0.5" stroke-linecap="round" stroke-miterlimit="10" d="M72.1,38.8l3.5-5.2
			c0.3-0.4,0.9-0.5,1.3-0.3l2.6,1.7c0.4,0.3,1,0.2,1.3-0.3l4.1-6"/>
		<path fill="none" stroke="#67717C" stroke-width="0.5" stroke-linecap="round" stroke-miterlimit="10" d="M84.9,47L84.9,47
			c-1.9-2.2-5.6-1.6-6.6,1.3v0"/>
	
		<path fill="#DCE1E5" d="M203.3,133l-14.3,14.3c-1.1,1.1-2.8,1.1-3.9,0L170.7,133c-1.1-1.1-1.1-2.8,0-3.9l14.3-14.3
			c1.1-1.1,2.8-1.1,3.9,0l14.3,14.3C204.4,130.2,204.4,131.9,203.3,133z"/>
		
			<line fill="none" stroke="#67717C" stroke-width="0.5" stroke-linecap="round" stroke-miterlimit="10" x1="172.8" y1="140.3" x2="172.5" y2="140"/>
		
			<line fill="none" stroke="#67717C" stroke-width="0.5" stroke-linecap="round" stroke-miterlimit="10" x1="170.5" y1="138" x2="168.8" y2="136.4"/>
		<path fill="none" stroke="#67717C" stroke-width="0.5" stroke-linecap="round" stroke-miterlimit="10" d="M166.3,133.9l-1.1-1.1
			c-1-1-1-2.6,0-3.7l14.6-14.6c1-1,2.6-1,3.7,0l14.6,14.6c1,1,1,2.6,0,3.7l-14.6,14.6c-1,1-2.6,1-3.7,0l-5-5"/>
		
			<line fill="none" stroke="#67717C" stroke-width="0.5" stroke-linecap="round" stroke-miterlimit="10" x1="171.6" y1="121.6" x2="167.1" y2="117.1"/>
		
			<line fill="none" stroke="#67717C" stroke-width="0.5" stroke-linecap="round" stroke-miterlimit="10" x1="195.1" y1="145.1" x2="190.6" y2="140.6"/>
		
			
				<line fill="none" stroke="#67717C" stroke-width="0.5" stroke-linecap="round" stroke-miterlimit="10" x1="187.1" y1="118.1" x2="191.6" y2="113.6"/>
			
				<line fill="none" stroke="#67717C" stroke-width="0.5" stroke-linecap="round" stroke-miterlimit="10" x1="194.4" y1="125.4" x2="198.9" y2="120.9"/>
		
		<circle fill="#E84B54" cx="176.5" cy="131.3" r="2"/>
		<circle fill="#E84B54" cx="182.1" cy="125.7" r="2"/>
		<circle fill="#E84B54" cx="182.1" cy="136.9" r="2"/>
		<circle fill="#E84B54" cx="187.7" cy="131.3" r="2"/>
	
		<path fill="#DCE1E5" d="M74.5,81.5l-9.7,4.1c-0.5,0.2-1,0-1.2-0.5l-4.9-11.6c-0.2-0.5,0-1,0.5-1.2l6.2-2.7c2.4-1,5.2,0.1,6.2,2.5
			l3.5,8.2C75.2,80.8,74.9,81.3,74.5,81.5z"/>
		
			<line fill="none" stroke="#67717C" stroke-width="0.5" stroke-linecap="round" stroke-miterlimit="10" x1="57.9" y1="76.8" x2="57.3" y2="75.4"/>
		
			<line fill="none" stroke="#67717C" stroke-width="0.5" stroke-linecap="round" stroke-miterlimit="10" x1="58.5" y1="78.2" x2="58.3" y2="77.9"/>
		<path fill="#FFFFFF" d="M63.2,69.1l1.6,3.8c0.2,0.5,0.8,0.8,1.4,0.5l3.2-1.4C69.4,72.1,67.2,67.4,63.2,69.1z"/>
		<path fill="none" stroke="#67717C" stroke-width="0.5" stroke-linecap="round" stroke-miterlimit="10" d="M56.6,73.9L56.3,73
			c-0.2-0.5,0-1.1,0.5-1.4l5.7-2.4c2.6-1.1,5.7,0.1,6.8,2.7l3.2,7.6c0.2,0.5,0,1.1-0.5,1.4L62.5,85c-0.5,0.2-1.1,0-1.4-0.5l-2.1-5"
			/>
		<path fill="none" stroke="#67717C" stroke-width="0.5" stroke-linecap="round" stroke-miterlimit="10" d="M69.4,72.1l-3.2,1.4
			c-0.5,0.2-1.1,0-1.4-0.5l-1.6-3.8"/>
		
				<path fill="none" stroke="#E84B54" stroke-width="0.5" stroke-linecap="round" stroke-miterlimit="10" d="M63.4,78l-0.6,1.6
					c-0.1,0.2,0,0.4,0.2,0.4l1.6,0.7"/>
				<path fill="none" stroke="#E84B54" stroke-width="0.5" stroke-linecap="round" stroke-miterlimit="10" d="M67.1,76.5l1.6,0.7
					c0.2,0.1,0.3,0.3,0.2,0.4l-0.6,1.6"/>
			
			
				<line fill="none" stroke="#67717C" stroke-width="0.5" stroke-linecap="round" stroke-miterlimit="10" x1="65.9" y1="80.6" x2="65.8" y2="76.6"/>
		
		<path fill="#DCE1E5" d="M163.4,172.7l-1.3-1.1c-1.7-1.5-1.9-4.1-0.4-5.8l3.8-4.4c1.5-1.7,4.1-1.9,5.8-0.4l1.3,1.1
			c1.7,1.5,1.9,4.1,0.4,5.8l-3.8,4.4C167.7,174,165.1,174.2,163.4,172.7z"/>
		
			<path fill="none" stroke="#67717C" stroke-width="0.5" stroke-linecap="round" stroke-miterlimit="10" d="M168.5,158.5
				c0,0-0.1,0-0.1,0"/>
			<path fill="none" stroke="#67717C" stroke-width="0.5" stroke-linecap="round" stroke-miterlimit="10" d="M170.2,159
				c-0.3-0.1-0.5-0.2-0.8-0.3"/>
			<path fill="none" stroke="#67717C" stroke-width="0.5" stroke-linecap="round" stroke-miterlimit="10" d="M166.9,158.7
				c-0.8,0.2-1.5,0.7-2.1,1.4l-3.4,3.9c-1.6,1.9-1.4,4.8,0.5,6.4l0.7,0.6c1.9,1.6,4.8,1.4,6.4-0.5l3.4-3.9c1.6-1.9,1.4-4.8-0.5-6.4
				l-0.7-0.6c-0.1-0.1-0.1-0.1-0.2-0.2"/>
		
		<path fill="#E84B54" d="M168.1,164L168.1,164c-0.3-0.3-0.3-0.6-0.1-0.9l1.3-1.5c0.2-0.2,0.6-0.3,0.8-0.1l0.1,0.1
			c0.2,0.2,0.3,0.6,0.1,0.8l-1.3,1.5C168.7,164.2,168.4,164.2,168.1,164z"/>
		
			<path fill="none" stroke="#67717C" stroke-width="0.5" stroke-linecap="round" stroke-miterlimit="10" d="M171.6,159.9l2.9-3.4
				c0.5-0.6,1.5-0.7,2.1-0.2l0,0c0.6,0.5,0.7,1.5,0.2,2.1"/>
			<path fill="none" stroke="#67717C" stroke-width="0.5" stroke-linecap="round" stroke-miterlimit="10" d="M176.7,158.5l-0.5,0.6
				c-0.5,0.6-0.5,1.6,0.2,2.1l0,0c0.6,0.5,1.6,0.5,2.1-0.2"/>
		
	
	
		<circle fill="#DCE1E5" cx="79.8" cy="199.1" r="5.9"/>
		<path fill="none" stroke="#67717C" stroke-width="0.5" stroke-linecap="round" stroke-miterlimit="10" d="M72.4,199.2
			c0-0.1,0-0.2,0-0.3"/>
		<path fill="none" stroke="#67717C" stroke-width="0.5" stroke-linecap="round" stroke-miterlimit="10" d="M72.7,201.4
			c-0.1-0.4-0.2-0.7-0.2-1.1"/>
		<path fill="none" stroke="#67717C" stroke-width="0.5" stroke-linecap="round" stroke-miterlimit="10" d="M73,197.2
			c1.4-3,4.9-4.2,7.9-2.8s4.2,4.9,2.8,7.9s-4.9,4.2-7.9,2.8c-1.1-0.5-2-1.4-2.6-2.4"/>
		<path fill="none" stroke="#67717C" stroke-width="0.5" stroke-linecap="round" stroke-miterlimit="10" d="M92.3,206.2l-0.1,0.2
			c-0.3,0.6-1,0.8-1.6,0.6l-4.5-2.1c-0.6-0.3-0.8-1-0.6-1.6l0.1-0.2c0.3-0.6,1-0.8,1.6-0.6l4.5,2.1
			C92.3,204.9,92.6,205.6,92.3,206.2z"/>
		<line fill="none" stroke="#67717C" stroke-width="0.5" stroke-miterlimit="10" x1="83.6" y1="202.2" x2="85.5" y2="203.1"/>
		<path fill="none" stroke="#E84B54" stroke-width="0.5" stroke-linecap="round" stroke-miterlimit="10" d="M78.5,195.4
			c0.5,0.1,1,0.2,1.5,0.4c1,0.5,1.8,1.3,2.3,2.3"/>
	
		</svg>

    </defs>
</svg>